<svg xmlns="http://www.w3.org/2000/svg" viewBox="504 320 456 84.5"><path d="M551.2 374.6q0 3.3-1.4 5.7-1.4 2.5-3.8 4.1-2.3 1.6-5.5 2.5-3.2.8-6.7.8h-24.9v-51.1h28.4q2.7 0 4.9 1.1 2.1 1.2 3.6 3t2.4 4.2q.8 2.3.8 4.8 0 3.6-1.8 6.9-1.9 3.2-5.5 4.9 4.3 1.3 6.9 4.6 2.6 3.3 2.6 8.5m-12.1-2.4q0-2.4-1.3-4-1.4-1.7-3.5-1.7h-13.6v11.2h13.1q2.3 0 3.8-1.5 1.5-1.6 1.5-4m-6.4-25.6h-12v10.6h11.6q1.9 0 3.5-1.3 1.5-1.3 1.5-4 0-2.5-1.4-3.9-1.3-1.4-3.2-1.4m42.5 41.8q-4.8 0-8.6-1.6t-6.4-4.3q-2.6-2.7-3.9-6.2-1.3-3.6-1.3-7.5t1.3-7.4q1.3-3.6 3.9-6.3 2.6-2.7 6.4-4.3 3.8-1.6 8.6-1.6t8.6 1.6q3.7 1.6 6.3 4.3 2.6 2.7 4 6.3 1.3 3.5 1.3 7.4 0 3.9-1.3 7.5-1.3 3.5-3.9 6.2-2.6 2.7-6.4 4.3-3.8 1.6-8.6 1.6m-8.4-19.6q0 4.5 2.4 7.2 2.3 2.7 6 2.7 1.8 0 3.3-.7 1.5-.8 2.6-2.1 1.2-1.3 1.8-3.1.7-1.8.7-4 0-4.4-2.4-7.1-2.4-2.7-6-2.7-1.8 0-3.3.7-1.6.7-2.7 2t-1.8 3.1q-.6 1.9-.6 4m45.1 19.6q-2.9 0-5.3-.9t-4.1-2.5q-1.7-1.6-2.7-3.8-1-2.2-1-4.8 0-2.8 1.1-5.1 1.2-2.3 3.4-4 2.1-1.7 5.1-2.6 3-.9 6.6-.9 2.3 0 4.6.4 2.2.4 3.8 1.2v-1.8q0-6.5-7.5-6.5-3.1 0-5.9 1-2.8 1.1-5.9 3.2l-3.4-7.2q3.7-2.5 7.8-3.7 4-1.2 8.5-1.2 8.6 0 13.3 4 4.7 4 4.7 11.8v9.7q0 1.7.5 2.4t1.9.9v9.7l-2.7.4-2.3.2q-3.2 0-4.8-1.3-1.7-1.3-2.1-3.6l-.3-1.7q-2.5 3.2-6 5-3.5 1.7-7.3 1.7m3.3-8.3q1.9 0 3.7-.6 1.7-.7 2.9-1.8 1.6-1.3 1.6-2.7v-3.6q-1.5-.6-3.2-.9-1.8-.3-3.3-.3-3.2 0-5.2 1.4-2.1 1.5-2.1 3.8 0 2.1 1.6 3.4 1.6 1.3 4 1.3m52.1-30.7v10.3q-4.2.1-7.6 1.4-3.3 1.3-4.9 3.9v22.7h-11.5v-37.8h10.6v7.6q1.9-3.8 5-6 3.1-2.1 6.5-2.2h1.2zm18.6 39q-3.8 0-7.1-1.5t-5.7-4.1q-2.3-2.7-3.7-6.2-1.3-3.6-1.3-7.9 0-4.1 1.2-7.7 1.2-3.6 3.5-6.2 2.2-2.6 5.3-4.1 3-1.5 6.7-1.5 4 0 7.2 1.8 3.2 1.9 4.9 5.1v-21h11.5v39.6q0 1.7.5 2.4.6.7 2 .9v9.7l-2.8.4-2.1.2q-3.1 0-4.9-1.3-1.9-1.3-2.2-3.6l-.2-2q-2 3.5-5.4 5.3-3.5 1.7-7.4 1.7m3.1-9.7q2.4 0 4.6-1.4 2.2-1.4 3.4-3.9v-7.9q-1.1-2.9-3.5-4.7-2.4-1.8-5-1.8-1.9 0-3.5.8-1.5.8-2.7 2.2-1.1 1.3-1.7 3.1-.6 1.8-.6 3.9 0 2 .7 3.8.6 1.8 1.8 3.1 1.2 1.3 2.9 2.1 1.7.7 3.6.7m65.1-37-5.2 9.8q-.2-.3-1.5-1l-3.2-1.7q-2-.9-4.3-1.5-2.3-.7-4.6-.7-6.3 0-6.3 4.3 0 1.3.7 2.1.7.9 2 1.6 1.3.7 3.3 1.3l4.7 1.3q3.7 1 6.7 2.1 2.9 1.2 5 3 2 1.8 3.1 4.3t1.1 6q0 4.4-1.6 7.3-1.6 3-4.3 4.9-2.6 1.8-6.1 2.6-3.4.9-7.1.9-2.8 0-5.8-.5-2.9-.4-5.7-1.2-2.8-.9-5.5-2-2.6-1.2-4.8-2.7l5.2-10.3q.2.4 1.8 1.4 1.6 1 4 2 2.3 1 5.2 1.8 2.9.8 5.8.8 6.3 0 6.3-3.8 0-1.5-1-2.4-.9-.9-2.6-1.7-1.6-.7-3.9-1.4l-4.9-1.4q-3.5-1.1-6.1-2.4-2.6-1.2-4.3-2.9-1.7-1.6-2.5-3.8-.9-2.2-.9-5 0-4.1 1.5-7.2 1.6-3.1 4.1-5.2 2.6-2.1 6.1-3.2 3.4-1.1 7.2-1.1 2.7 0 5.3.5 2.5.5 4.9 1.3 2.4.8 4.4 1.8zm25.6 46.7q-4.8 0-8.5-1.5-3.8-1.6-6.5-4.3-2.6-2.6-3.9-6.1-1.4-3.5-1.4-7.3 0-4.1 1.4-7.8 1.3-3.6 3.9-6.3 2.6-2.8 6.4-4.4 3.8-1.5 8.6-1.5t8.6 1.5q3.7 1.6 6.3 4.3 2.6 2.7 3.9 6.3 1.3 3.5 1.3 7.4v2l-.2 1.6h-28q.3 3.9 2.8 5.8 2.5 2 5.6 2 2.6 0 4.9-1.2 2.3-1.2 3.1-3.3l9.8 2.7q-2.2 4.5-6.9 7.3t-11.2 2.8m-8.3-23.2h16.3q-.4-3.6-2.6-5.7t-5.6-2.1q-3.3 0-5.5 2.2-2.2 2.1-2.6 5.6m31.5 3.5q0-3.8 1.3-7.4 1.4-3.6 4-6.3 2.6-2.7 6.4-4.3 3.8-1.5 8.6-1.5 6.5 0 11 2.7 4.5 2.8 6.7 7.3l-11.2 3.4q-2.3-3.6-6.6-3.6-3.6 0-6 2.6-2.4 2.7-2.4 7.1 0 2.3.6 4.1.7 1.8 1.8 3.1 1.2 1.3 2.7 2.1 1.6.7 3.3.7 2.2 0 4-1.1 1.8-1 2.6-2.7l11.3 3.5q-2.1 4.4-6.7 7.2t-11.1 2.8q-4.8 0-8.6-1.6-3.7-1.6-6.4-4.3-2.6-2.7-4-6.3-1.3-3.6-1.3-7.5m54.7 19.7q-5.8 0-8.8-3.6-3-3.7-3-10.7v-24.2h11.5v21.7q0 3.4 1.4 5.2 1.3 1.9 3.9 1.9 2.3 0 4.4-1.2 2.2-1.3 3.8-4.3v-23.3h11.6v24.8q0 1.7.5 2.4t1.9.9v9.7l-2.8.4-2.1.2q-6.2 0-7-4.9l-.3-2.3q-2.6 3.8-6.4 5.5-3.9 1.8-8.6 1.8m57.7-39v10.3q-4.2.1-7.6 1.4-3.4 1.3-4.9 3.9v22.7h-11.5v-37.8h10.6v7.6q1.9-3.8 5-6 3-2.1 6.5-2.2h1.1zm21 39q-4.8 0-8.5-1.5-3.8-1.6-6.5-4.3-2.6-2.6-3.9-6.1-1.4-3.5-1.4-7.3 0-4.1 1.4-7.8 1.3-3.6 3.9-6.3 2.6-2.8 6.4-4.4 3.8-1.5 8.6-1.5t8.6 1.5q3.7 1.6 6.3 4.3 2.6 2.7 3.9 6.3 1.3 3.5 1.3 7.4v2l-.2 1.6h-28q.3 3.9 2.8 5.8 2.5 2 5.6 2 2.6 0 4.9-1.2 2.3-1.2 3.1-3.3l9.8 2.7q-2.2 4.5-6.9 7.3t-11.2 2.8m-8.3-23.2h16.3q-.4-3.6-2.6-5.7t-5.6-2.1q-3.3 0-5.5 2.2-2.2 2.1-2.6 5.6" fill="#0F0059"/></svg>