<svg xmlns="http://www.w3.org/2000/svg" style="isolation:isolate" viewBox="365.7 751.2 189.9 39.7"><clipPath id="a"><path d="M365.7 790.9h189.9v-39.7h-190v39.7Z" fill="#FFF"/></clipPath><g clip-path="url(#a)"><path d="M379.1 778.2c2 0 4.2-.4 6.3-1.8v5.7a15 15 0 0 1-7 1.7c-7.3 0-12.7-5.4-12.7-12.8s5.5-12.8 12.6-12.8c2.5 0 5 .5 7 1.7v5.8c-2-1.4-4-2-6.2-2a7 7 0 0 0-7.3 7.3 7 7 0 0 0 7.3 7.2ZM406 771c0-4.3-2.7-7.2-6.3-7.2-3.7 0-6.4 3-6.4 7.2s2.7 7.2 6.4 7.2c3.6 0 6.3-3 6.3-7.2Zm-18.9 0c0-7.7 5.4-12.8 11-12.8 3.5 0 6.5 1.8 8.2 4.6l.6-4h5.2v24.4h-5.2l-.6-4a9.5 9.5 0 0 1-8.3 4.6c-5.5 0-10.9-5-10.9-12.8Zm29.1-12.2h5l.5 3.7h.1a7.8 7.8 0 0 1 8.6-3.8v5.7l-2-.1c-3 0-6 1.7-6 6.3v12.6h-6.2v-24.4ZM448 769c-.1-3.9-2.4-5.9-5.3-5.9-3 0-5.6 2.3-6.2 5.8H448Zm5.7 3.8h-17.2c.9 3.9 4 6 8 6 2.8 0 5.4-1 7.8-2.6v5.2a15.9 15.9 0 0 1-8.4 2.4c-8.3 0-13.2-5.3-13.2-12.7 0-7.8 5.4-12.9 12-12.9 6.2 0 11.1 4.3 11.1 12.4l-.1 2.2Zm9 1.1v-15.1h4V774c0 3.8 2.1 6.1 5.6 6.1 3.5 0 5.8-2.3 5.8-6.2v-15.1h4v15c0 6-3.8 10-9.8 10-6 0-9.6-4-9.6-10Zm37.8 9.4-10.4-11.9v11.9h-4v-24.5h4v11.8l10.4-11.8h4.7l-10.8 12.1 11 12.4h-4.9Z" fill="#4E0E50"/><path d="m535 760.7-1.6-1.5a12 12 0 0 0-2.8-1.9 40.4 40.4 0 0 0-10.1 9.1 22.5 22.5 0 0 0 2.6 5 34.4 34.4 0 0 1 12-10.7Z" fill="#BA96C6"/><path d="m535 788-1.6-.8-3.6-2.1a9.5 9.5 0 0 1-3.6.6c-2.2 0-4.1-1-5.4-2.3-1.4-1.6-1.5-4-.4-7l-2.2-3-1-2c-3.5 6.3-3.6 11.7-.2 15.4a12 12 0 0 0 9 4c2 .1 5.4-.2 9-2.7Z" fill="#9AD5F6"/><path d="m535 760.7 1.7-1.5a12 12 0 0 1 2.7-1.9 40.4 40.4 0 0 1 10.2 9.1 22.5 22.5 0 0 1-2.6 5 34.4 34.4 0 0 0-12-10.7Z" fill="#FCC975"/><path d="m535 788 1.6-.8a27 27 0 0 0 3.7-2.1 9.4 9.4 0 0 0 3.6.6c2.2 0 4.1-1 5.4-2.3 1.4-1.6 1.5-4 .4-7l2.2-3 1-2c3.5 6.3 3.6 11.7.2 15.4a12 12 0 0 1-9 4c-2 .1-5.4-.2-9-2.7Z" fill="#C6DA85"/><path d="M547.5 770.6a33.7 33.7 0 0 1-12.5 11.6 34.5 34.5 0 0 1-12.4-11.6c-3.2-5-3.8-9.6-1.8-12a7.5 7.5 0 0 1 5.6-2.3c1.8 0 4.3.6 7 2.9l1.6 1.5 1.7-1.5a10.3 10.3 0 0 1 7.2-2.9c2.2.1 4.1 1 5.4 2.4 2 2.3 1.3 7-1.8 12Zm5.6-15.3c-2.2-2.5-5.5-4-9-4.1-2 0-5.4.3-9 2.8a15.2 15.2 0 0 0-9-2.8c-3.6 0-7 1.6-9.1 4-3.7 4.2-3.2 11 1.2 18.2a39 39 0 0 0 15.2 13.8l1.6.9 1.6-.9a39.2 39.2 0 0 0 15.3-13.8c4.4-7.1 5-14 1.2-18.1Z" fill="#D7007E"/></g></svg>