<svg xmlns="http://www.w3.org/2000/svg" viewBox="0 0 362.7 512"><path fill="#264de4" d="m362.8 100.6-33.1 370.2L181.2 512 33 470.9 0 100.6z"/><path fill="#2965f1" d="m301.4 447.2 28.3-316.3H181.4v349.6z"/><path fill="#ebebeb" d="m75.7 268.2 4.1 45.4h101.6v-45.4zm105.7-91.9H67.5l4.2 45.4h109.7zm0 257.1v-47.2h-.2l-50.6-13.6-3.2-36.3H81.8l6.4 71.3 93 25.9z"/><path d="M85.4 0h55v23h-32v23h32v23h-55zm66 0h55v20h-32v4h32v46h-55V49h32v-4h-32zm66 0h55v20h-32v4h32v46h-55V49h32v-4h-32z"/><path fill="#fff" d="m237.2 313.6-5.3 58.9-50.7 13.7v47.2l93.1-25.8.7-7.6 10.7-119.6 1.1-12.2 8.2-91.9H181.2v45.4h64l-4.1 46.5h-59.9v45.4z"/></svg>