<svg xmlns="http://www.w3.org/2000/svg" style="isolation:isolate" viewBox="228.7 412.9 137.8 16"><path d="M262.9 428.5h2.5l4.6-4h20l4.7 4h2.5L280 413zm8.8-5.6 8.3-7.5 8.3 7.5zm31.6-9.5 26.8 13v-13h1.8v15.1H330l-26.8-13.1v13.1h-1.8v-15zm33.3 1.7v-1.7h30v1.7h-14.1v13.4h-1.9v-13.4zm-78.9 7h-15v-1.7h17v5.8a31.3 31.3 0 0 1-14 2.7c-8.1 0-17-2.8-17-8s9-8 16.6-8c6.2 0 11 1.4 13.6 3l-1 1.4c-2.6-1.5-7-2.6-12.6-2.6-6.2 0-14.4 1.9-14.4 6.2 0 4.3 8 6.4 14.7 6.4 5.7 0 9.5-.9 12.1-2z" fill-rule="evenodd"/></svg>