
<svg xmlns="http://www.w3.org/2000/svg" style="isolation:isolate" viewBox="19 424.1 196.6 26.9"><path d="M31.5 447.7c-1.1 0-2.3-.2-3.4-.6a22 22 0 0 0-.1-19.4 10.3 10.3 0 0 1 7 0 22 22 0 0 0 0 19.4c-1.1.4-2.3.6-3.5.6Zm-7.3-3a10.3 10.3 0 0 1 0-14.6l1.8-1.5c1.2 2.4 1.9 5 2 7.6h-2c0-1.8-.5-3.6-1.2-5.3l-1.6 2.2a15.7 15.7 0 0 1 .1 8.6c.4.8 1 1.5 1.6 2.2.7-1.7 1-3.5 1.2-5.4h2a19.7 19.7 0 0 1-2 7.6l-1.9-1.4Zm16.1-8.5v2.3h1.5A10.2 10.2 0 0 1 37 446a20 20 0 0 1-2-7.6h2c.1 1.9.5 3.7 1.2 5.4.6-.7 1.2-1.4 1.6-2.2a15.8 15.8 0 0 1 0-8.6c-.4-.8-1-1.5-1.6-2.2a24 24 0 0 0-1.2 5.3h-2c.2-2.6 1-5.2 2-7.6a10.4 10.4 0 0 1 4.5 6h2.3a13 13 0 0 0-5.6-7.9l.9-1.3-1.8-1.3-1.1 1.6a12.5 12.5 0 0 0-9.3 0l-1.1-1.6-1.8 1.3.9 1.3A12.5 12.5 0 0 0 25 448l-1 1.6 1.7 1.3c.5-.6 1-1.3 1.3-2a12.5 12.5 0 0 0 9 0l1.4 2 1.7-1.3-1-1.6c3.6-2.2 6-6.2 6-10.7v-1.2h-3.8Z" fill="#EC2227"/><path d="M59.9 437.4h4.5v5.1a6.6 6.6 0 0 1-3.4 1.6l-1.7.1a6 6 0 0 1-2.7-.5 6.1 6.1 0 0 1-3.4-3.5 7.6 7.6 0 0 1 1.4-7.4 6.2 6.2 0 0 1 4.6-2 6.4 6.4 0 0 1 3.3.9l1 .8.7.8-1.3 1.1-.6-.6a4 4 0 0 0-1.7-1.2 4 4 0 0 0-1.3-.2c-.7 0-1.4.2-2 .5-.5.2-1 .6-1.4 1a5 5 0 0 0-.9 1.7 6.1 6.1 0 0 0 0 4l1 1.6a4.5 4.5 0 0 0 3.4 1.4c.7 0 1.3-.1 1.9-.3.5-.1 1-.4 1.3-.7V439h-2.7v-1.6Zm7.3-6.3h8v1.7H69v3.7h4.7v1.6H69v4.2h6.7v1.6h-8.5v-12.8Zm10.3 0h1.9l7 10v-10h1.8V444h-1.9l-7-10v10h-1.8v-12.8Zm17.2 1.6h-4.6v-1.6h11v1.6h-4.5V444h-1.9v-11.2Zm8.3-1.6h1.9V444H103v-12.8Zm4.8 0h1.9l7 10v-10h1.8V444h-1.9l-7-10v10h-1.8v-12.8Zm20.2 6.3h4.4v5.1a7.1 7.1 0 0 1-1.9 1.2 8.1 8.1 0 0 1-3.1.5c-1 0-2-.1-2.7-.5a6.1 6.1 0 0 1-3.4-3.5 7.6 7.6 0 0 1 0-5.3c.4-.8.8-1.5 1.4-2.1a6.2 6.2 0 0 1 4.6-2 6.4 6.4 0 0 1 3.3.9l1 .8.7.8-1.3 1.1-.6-.6a4 4 0 0 0-1.7-1.2 4 4 0 0 0-1.3-.2c-.7 0-1.4.2-2 .5-.5.2-1 .6-1.4 1a5 5 0 0 0-.9 1.7 6.1 6.1 0 0 0 0 4l1 1.6a4.5 4.5 0 0 0 3.4 1.4c.7 0 1.3-.1 1.8-.3.6-.1 1-.4 1.4-.7V439H128v-1.6Zm21.6 4.3-.6.8-1.1.8c-.4.3-1 .5-1.5.7-.5.2-1.1.2-1.8.2-1 0-1.8-.1-2.6-.5a6 6 0 0 1-3.3-3.5 7.3 7.3 0 0 1 1.3-7.4 6.1 6.1 0 0 1 4.6-2 6.2 6.2 0 0 1 3.3.9 5.5 5.5 0 0 1 1.7 1.7l-1.3 1-.5-.6-.8-.7a4.4 4.4 0 0 0-5.7.9c-.4.4-.7 1-.9 1.6a6.2 6.2 0 0 0 0 3.9l1 1.6a4.1 4.1 0 0 0 3.2 1.4 4.5 4.5 0 0 0 2.5-.7 67.1 67.1 0 0 1 1.2-1.2l1.3 1Zm8.7-2.9-2.1-5.6-2.1 5.6h4.2Zm-3-7.7h1.9l5 12.8h-2l-1.4-3.5h-5.3l-1.3 3.5h-2l5-12.8Zm8.7 9.7.6.6a4.1 4.1 0 0 0 2.9 1.2 3 3 0 0 0 2-.6c.4-.4.7-.9.7-1.6 0-.7-.3-1.2-.8-1.5a7 7 0 0 0-2.4-.9l-1.5-.5-1.1-.7a3.3 3.3 0 0 1-1-2.5c0-.5 0-1 .2-1.3.2-.5.5-.8.8-1.1a4 4 0 0 1 1.4-.8c.5-.2 1.1-.3 1.8-.3a5.8 5.8 0 0 1 2.8.7l.8.6.4.5-1.2 1.1-.3-.3-.6-.5a3.9 3.9 0 0 0-2-.5 3 3 0 0 0-1 .2l-.7.4a1.6 1.6 0 0 0-.6 1.3c0 .3 0 .5.2.8l.6.6 1 .4 1.2.4c.5 0 1 .2 1.4.4l1.3.8.8 1.1a3.9 3.9 0 0 1 0 3.2 3 3 0 0 1-1 1.2c-.4.3-.8.6-1.4.8a6 6 0 0 1-5.8-1.2l-.8-.8 1.3-1.2Zm43.6 0 .6.6a4.1 4.1 0 0 0 2.9 1.2 3 3 0 0 0 2-.6c.4-.4.7-.9.7-1.6 0-.7-.3-1.2-.9-1.5a7 7 0 0 0-2.3-.9l-1.5-.5-1.1-.7-.8-1.1a3.4 3.4 0 0 1 0-2.7c.2-.5.5-.8.8-1.1a4 4 0 0 1 1.4-.8c.5-.2 1.1-.3 1.8-.3a5.7 5.7 0 0 1 2.8.7l.8.6.4.5-1.2 1.1-.4-.3a3.3 3.3 0 0 0-1.4-.8 3.8 3.8 0 0 0-2.1 0l-.7.4a1.6 1.6 0 0 0-.6 1.3c0 .3 0 .5.2.8l.6.6 1 .4 1.2.4c.5 0 1 .2 1.4.4l1.3.8.8 1.1a4 4 0 0 1 0 3.2 4.4 4.4 0 0 1-2.4 2l-1.8.3a6 6 0 0 1-4-1.5l-.8-.8 1.3-1.2Zm-32.9-9.7h1.8V444h-1.8v-12.8Zm4.7 0h1.9l7 10v-10h1.8V444h-1.9l-7-10v10h-1.8v-12.8Zm19.5 11.4a4.4 4.4 0 0 0 4.3-3 5.7 5.7 0 0 0 0-4 5 5 0 0 0-1-1.6 4.3 4.3 0 0 0-3.3-1.4 4.4 4.4 0 0 0-3.4 1.4 5 5 0 0 0-.9 1.7 5.7 5.7 0 0 0 1 5.4c.3.5.8.9 1.4 1.1a4 4 0 0 0 1.9.4Zm0 1.8a6.3 6.3 0 0 1-4.7-2 6.7 6.7 0 0 1-1.8-4.8 6.9 6.9 0 0 1 1.8-4.7 6.5 6.5 0 0 1 10.7 2.1c.4.8.5 1.7.5 2.6a7 7 0 0 1-1.8 4.8 6.5 6.5 0 0 1-4.7 2Z" fill="#414141"/></svg>