<svg xmlns="http://www.w3.org/2000/svg" viewBox="0 0 162 57.5"><defs><style>.prefix__a{fill:#43b02a}</style></defs><path class="prefix__a" d="M77 28.1a2.1 2.1 0 0 0-2-3.7 28.2 28.2 0 0 0-6.3 5 24.6 24.6 0 0 0-4.5 6.3l-.5 1.2a18 18 0 0 0-1.3-2.4 13.9 13.9 0 0 0-3.2-3.7 2.1 2.1 0 0 0-2.5 3.4 10.6 10.6 0 0 1 2.3 2.9 16 16 0 0 1 2.2 8.3 28 28 0 0 1-1.8 9.4 2.1 2.1 0 1 0 4 1.4l.7-2.5 1.3 2.8a2.1 2.1 0 1 0 3.8-2 21 21 0 0 1-2.8-10 15.9 15.9 0 0 1 1.6-7 21.8 21.8 0 0 1 5.7-7 25.2 25.2 0 0 1 2.4-1.8l.7-.5zM20.7 57.3a2.2 2.2 0 0 0 2.2-2.3V43.2a11.5 11.5 0 0 0-18.5-9V22.8a2.2 2.2 0 1 0-4.4 0V55a2.2 2.2 0 1 0 4.4 0V43.2a7 7 0 0 1 14.1 0V55a2.2 2.2 0 0 0 2.2 2.3m129.7-25.6a11.7 11.7 0 0 0-8 3.3 10.6 10.6 0 0 0-3.4 7.6V55a2.2 2.2 0 0 0 4.4 0V42.6a6.2 6.2 0 0 1 2-4.4 7.3 7.3 0 0 1 5-2 7 7 0 0 1 7.2 7V55a2.2 2.2 0 1 0 4.4 0V43.2a11.5 11.5 0 0 0-11.5-11.5M81.2 55V34a2.2 2.2 0 0 0-4.4 0v21a2.2 2.2 0 0 0 4.4 0m25-22a2.2 2.2 0 0 0-2-1.3H87.8a2.2 2.2 0 0 0 0 4.4h12L86.1 53.7a2.2 2.2 0 0 0 1.7 3.5h16.4a2.2 2.2 0 0 0 0-4.4H92.4l13.7-17.5a2.2 2.2 0 0 0 .2-2.4m15.9-1.2A12.8 12.8 0 1 0 135 44.5a12.8 12.8 0 0 0-12.8-12.8m6 18.7a8.4 8.4 0 1 1 2.4-6 8.3 8.3 0 0 1-2.5 6m-87 6.8a12.8 12.8 0 1 0-12.8-12.7 12.8 12.8 0 0 0 12.8 12.7m-6-18.6a8.4 8.4 0 1 1-2.4 5.9 8.3 8.3 0 0 1 2.5-6"/><path class="prefix__a" d="M63.1 21.9a3 3 0 1 0 3 3 3 3 0 0 0-3-3m32.1-3.7a7.1 7.1 0 0 0 2-5A7 7 0 0 0 95 8a7.5 7.5 0 0 0-3.7-1.9 7.1 7.1 0 0 0-6.9-6h-.2a7 7 0 0 0-5 2.2 7.5 7.5 0 0 0-2.1 5.1V18a2.3 2.3 0 0 0 2.3 2.4h10.7a7.1 7.1 0 0 0 5-2.1M80.8 7.5a3.7 3.7 0 0 1 1-2.5 3.2 3.2 0 0 1 2.3-1h.1a3.3 3.3 0 0 1 3.3 3.3v2.6h2.3a3.7 3.7 0 0 1 2.5 1 3.2 3.2 0 0 1 1 2.3v.1a3.4 3.4 0 0 1-3.3 3.3h-9.2V8Z"/></svg>