<svg xmlns="http://www.w3.org/2000/svg" style="isolation:isolate" viewBox="0 0 200 78.3"><clipPath id="a"><path d="M0 0v78.3h200V0H0Z" fill="#FFF"/></clipPath><g clip-path="url(#a)"><path d="m13 34.3-.8-1.8-.1-.2-.3.1a99.3 99.3 0 0 0-1 2.4l.8 1.8c0 .2.3.2.3 0a85.2 85.2 0 0 1 1-2.3ZM22.5 59c-1.8 4.2-7.9 9.4-9.4 12.3h4.2c1.7-2.3 5.1-5.3 6.8-8 .2-.3.2-.5.1-.7a547 547 0 0 1-1.6-3.7l-.1.2Zm3.5 8.1a8249.5 8249.5 0 0 1-1-2.5h-.2c-1.8 2.4-4.5 4.1-6.5 6.7h4.2c.7-.7 2.8-2.4 3.5-3.6V67Zm-4.2-10.7a25194.2 25194.2 0 0 1-8-19.6l-.2.1-1 2.2v.2c1 2.4 3.9 9.2 4.7 12.4l.5 2.5c0 3.4-3.6 8-6 11.6-2.3 3.7-2 5.5-2 5.5H12c1.4-2.8 8-9.2 9.8-14.5v-.4ZM26.4 69c-1 1-2.2 1.7-2.9 2.3h4.2l-1-2.3-.1-.1h-.2ZM5.6 78h26.2v-4.7H5.6V78Z" fill="#373535"/><path d="m40.4 32.4 1.1.6L43 18c0-.2-.1-.2-.2-.3l-.2.2-2.1 14.5Z" fill="#EC3438"/><path d="M51.4 21.2h-.2l-9.3 12 .3.3c0 .3-.4.4-.9.3-.3 0-.8-.5-1-.4l-.1.2-.4 2.4.1.4.2.2v.1h.1c.3.2.7.1 1-.2l10.3-15v-.3Z" fill="#EC3438"/><path d="m40.2 33.6.1-.2 1 .4c.5 0 .9 0 1-.3l-.4-.3.2-.3a2.9 2.9 0 0 0-.5-.5v.6l-1.2-.6v-.6c-.1-.1-.2-.2-.5-.2h-2l-.8-.1-6.2-4c-.3-.3-.6-.4-.7-1l-1-4.2c-.3-1-.4-2-.5-3a9.5 9.5 0 0 0-.7-3c-.2-.4-.7-1.2-2.5-1.6-.7-.1-2.4-.7-3-2.3 0-.3-.3-1.9.6-2.5.4-.4 1.3-1 1.8-2 .3-.6 1-2.1 0-3.6-.3-.4.2-2.9-2.2-4-.5-.3-1.1-.4-1.5-.2-.3 0-.4.2-.7.1a3 3 0 0 0-2 .4l-.7 1-.4.3c-.6.3-1.5 1-1.5 2.2 0 .9.4 1.7.4 2.2 0 .8.5 1.6.8 1.9h.2V8c0-.9.3-1.3.3-1.8 0-1.4.8-2 1.4-2.1.5-.2 1.2-.2 1.7 0s.6.8.5 1.3c0 .1 0 .4-.3.6-.3.2-.7 0-1 .5-.3.7 0 2.9 0 3.3.2.6.1.9 0 1-.3.3-.7.2-1 0h-.2l-.1.2c0 .3 0 1 .4 1.8.5 1.3 1.6 2.2 1.9 2.6.7 1 1.2 2.3-.6 2.8-1.4.3-3.1 0-3.8-.6-1.5-1.1-1.3-2.6-.8-3.3V14h-.2c-.5.1-1.2.2-1.8.5-.6.3-1.1.8-1.3 1.7-.6 2.1-.5 3.3-.7 4.5l-1 4.3-.3.2-3.7-1.7L6 23l-1.6-1.5-.8-.2H2.4L2 21l-.8-2.2c0-.3-.4-.5-.8-.4-.4.1-.6.6-.5.9a255.8 255.8 0 0 0 .7 2.4c-.1 0-.3.1-.3.3 0 .3.4.4.3.7l-.2.3c0 .2.2.4.4.6.4.2.4.7 1.1 1l.2.1L14 53.4c.1.1.3.2.4.1.2 0 .2-.2.2-.3A7159 7159 0 0 1 3.8 24.7h1c.4 0 .7.3 1 .4l5.4 4c.1 0 .6.2.8 0 .4-.1.7-.6.9-1l1.4-4.6s.1-.2.2-.1l.3.1c.1.7 1 3.2 1.1 4.7 0 .7-.5 2-.7 2.7v.2h.2c.1-.2 1.1-1.3 2.4-2.1 1.7-1 4-1.8 6.2-3.5h.3c.1.1.1.2 0 .4-1.7 2.4-6.7 4.6-8.6 7.3-.7 1-.5 1.5-.5 1.7l2.6 6.8s.2.2.3 0c.3-.1.9-.7 1.2-1 .2-.1.4 0 .5.2l1.8 4.8c0 .2 0 .4-.2.5-.2 0-.4 0-.5-.3l-1.3-3.4h-.3l-.8.7v.2a5131.5 5131.5 0 0 0 2.8 6.8l1.2-1.1c.1-.1.4-.1.5.1l1.8 4.8c0 .2 0 .4-.2.5-.2.1-.4 0-.5-.2a1948.6 1948.6 0 0 1-1.6-3.5l-.8.7v.2l3.8 10 .2.2.1-.2C26.5 57 29 44.4 27.6 37c-.4-2.2-2.3-6.3-2.5-8a10 10 0 0 1 .8-4.5c.1-.3.5-.2.6.1l1 3.8c.3.6.3.9.8 1l8.3 4 1.7.8c.7.3 1.2.2 1.8.3v-.8Zm18.4 1.3V21h3.3v14h-3.3Zm17.1-.3a8 8 0 0 1-6 0 7 7 0 0 1-4.4-6.6 6.6 6.6 0 0 1 4.5-6.7 8.4 8.4 0 0 1 5.8 0c.9.3 1.6.8 2.2 1.5L75.6 25a4 4 0 0 0-1.2-1 4 4 0 0 0-3.2 0 3.8 3.8 0 0 0-2 2.3c-.2.5-.3 1-.3 1.7 0 .6 0 1.2.2 1.7s.5 1 .9 1.3c.3.4.7.7 1.2.9.5.2 1 .3 1.6.3.6 0 1.2-.2 1.7-.4a4 4 0 0 0 1.2-1L78 33c-.6.6-1.4 1.2-2.3 1.6Zm10.8-9.8-1.7 4.7h3.5l-1.8-4.7Zm3.7 10-1-2.6h-5.3l-1 2.6h-3.7L85 21.2h3.2L94 35h-3.7Zm6.2.1V21h9.2v3h-6v2.6h5.7v2.7h-5.7V32h6.4v3h-9.6Zm27.6 0h-3.2l-2.8-9.3-2.7 9.3H112L108 21h3.7l2.1 9.2 2.5-9.2h3.5l2.4 9.2 2.3-9.2h3.4L124 35ZM70.6 54.3a6.1 6.1 0 0 1-5.2 2.5c-1 0-2-.2-3-.6a6.7 6.7 0 0 1-3.7-3.7c-.4-1-.6-2-.6-3s.2-2 .6-2.9a6.6 6.6 0 0 1 3.8-3.7 7.9 7.9 0 0 1 5.7 0c.5.2.9.4 1.2.7.4.2.7.5 1 .9l-1.5 1.1c-.4-.4-.9-.8-1.5-1.1-.6-.3-1.2-.5-2-.5s-1.5.2-2.1.5a5 5 0 0 0-1.6 1.2c-.5.5-.9 1-1 1.7a6.4 6.4 0 0 0 0 4.3c.1.7.5 1.3 1 1.8.4.5 1 .8 1.5 1.1a5.2 5.2 0 0 0 4.3 0 4 4 0 0 0 1.6-1.4l1.5 1Zm2.9-11.6h1.9v5.7h7v-5.7h1.9v13.7h-2v-6.3h-7v6.3h-1.8V42.7Zm17.7 8.7h5.1l-2.5-6.5-2.6 6.5Zm-2 5H87l6-13.7h1.7l6 13.7h-2.3L97 53h-6.5l-1.3 3.4Zm16.1-7.7h2.2l1.3-.1c.4 0 .7-.2 1-.4l.7-.7.2-1c0-.4 0-.8-.2-1a2 2 0 0 0-.7-.7 3 3 0 0 0-1-.4h-3.5v4.3Zm0 7.7h-2V42.7h4.5c.6 0 1.3 0 1.9.2.6.1 1 .4 1.5.6.5.3.8.7 1 1.2.3.5.5 1.1.5 1.8a3 3 0 0 1-1 2.4c-.6.7-1.4 1-2.4 1.2l3.9 6.3h-2.4l-3.4-6h-2.1v6Zm15.9 0h-2v-12H115v-1.7h10.7v1.7h-4.4v12Zm9.1-1.7h7.2v1.7h-9V42.7h8.7v1.7h-6.9v4h6.5v1.7h-6.5v4.6Zm12.5-6h2.2l1.3-.1c.3 0 .7-.2 1-.4l.7-.7.2-1c0-.4 0-.8-.2-1a2 2 0 0 0-.7-.7 3 3 0 0 0-1-.4h-3.5v4.3Zm0 7.7h-2V42.7h4.5c.6 0 1.3 0 1.8.2a6 6 0 0 1 1.6.6c.5.3.8.7 1 1.2a3.5 3.5 0 0 1-.5 4.2c-.6.7-1.4 1-2.4 1.2l3.9 6.3h-2.4l-3.5-6h-2v6Zm12.9-1.7h7.1v1.7h-9V42.7h8.8v1.7h-7v4h6.5v1.7h-6.4v4.6Zm12.4 0h2.4c.9 0 1.6 0 2.3-.3.7-.3 1.3-.6 1.8-1 .6-.5 1-1 1.2-1.7.3-.6.5-1.3.5-2.1 0-.9-.2-1.6-.5-2.3-.2-.6-.6-1.2-1.2-1.6-.5-.4-1-.8-1.8-1a8 8 0 0 0-2.3-.3h-2.4v10.3Zm-1.9-12h4.7c.9 0 1.8.1 2.7.4a7 7 0 0 1 2.3 1.2 6.3 6.3 0 0 1 2.4 5.3c0 1.1-.2 2.1-.6 3-.5.9-1 1.6-1.8 2.1a7.6 7.6 0 0 1-5 1.7h-4.7V42.7ZM61.5 73h5L64 66.4l-2.5 6.4Zm-2.1 5h-2.1l6-13.7H65L70.9 78h-2.2l-1.4-3.4h-6.5L59.4 78Zm25.3-2.1a6.1 6.1 0 0 1-5.3 2.4c-1 0-2-.1-2.9-.5a6.8 6.8 0 0 1-3.7-3.8 7.6 7.6 0 0 1 0-5.9 6.6 6.6 0 0 1 3.8-3.7 7.9 7.9 0 0 1 5.7 0l1.2.7 1 1-1.6 1.1a4.4 4.4 0 0 0-3.4-1.6c-.8 0-1.5.2-2.1.4a5 5 0 0 0-1.7 1.2 6 6 0 0 0-1.4 3.9c0 .8.1 1.5.4 2.2.2.7.5 1.2 1 1.7.4.5 1 1 1.6 1.2a5.2 5.2 0 0 0 4.3 0 4 4 0 0 0 1.5-1.4l1.6 1Zm14.3 0a6.2 6.2 0 0 1-5.3 2.4c-1 0-2-.1-2.9-.5a6.8 6.8 0 0 1-3.7-3.8 7.5 7.5 0 0 1 0-5.9 6.6 6.6 0 0 1 3.8-3.7 7.9 7.9 0 0 1 5.7 0l1.2.7 1 1-1.6 1.1a4.4 4.4 0 0 0-3.4-1.6c-.8 0-1.5.2-2.1.4a5 5 0 0 0-1.7 1.2 6 6 0 0 0-1.4 3.9c0 .8.1 1.5.4 2.2.2.7.5 1.2 1 1.7.4.5 1 1 1.6 1.2a5.2 5.2 0 0 0 4.3 0 4 4 0 0 0 1.5-1.4l1.6 1Zm14.3-4.8c0-.7-.2-1.4-.4-2.1-.3-.7-.6-1.3-1-1.8a4.9 4.9 0 0 0-3.8-1.6c-.8 0-1.5.2-2.2.4-.6.3-1.2.7-1.6 1.2a4 4 0 0 0-1 1.8 6.2 6.2 0 0 0 0 4.3 4.9 4.9 0 0 0 4.8 3.4 5 5 0 0 0 2.1-.5 4.8 4.8 0 0 0 2.7-3c.2-.6.4-1.3.4-2Zm2 0a7 7 0 0 1-7.3 7.2 6.8 6.8 0 0 1-7.2-7.2c0-1 .2-2 .5-3a6.6 6.6 0 0 1 3.9-3.7 8.4 8.4 0 0 1 5.8 0c.8.4 1.6.9 2.3 1.5a7.6 7.6 0 0 1 2 5.2Zm8.8 7.2a6 6 0 0 1-2.4-.4 4.8 4.8 0 0 1-2.6-3c-.2-.6-.3-1.3-.3-2v-8.6h1.9v8.5c0 .5 0 1 .2 1.4 0 .4.3.9.5 1.2.3.4.7.7 1.1.9.4.2 1 .3 1.6.3.6 0 1.2-.1 1.6-.3.5-.2.8-.5 1-.9.3-.3.5-.8.6-1.2.2-.5.2-1 .2-1.4v-8.5h2v8.6c0 .7-.2 1.4-.4 2a4.8 4.8 0 0 1-2.6 3 6 6 0 0 1-2.4.4Zm19.2-3.1v-11h2V78h-2.4l-7.3-11.2V78h-2V64.3h2.6l7.1 11Zm11.1 2.8h-2V66h-4.3v-1.7h10.7V66h-4.4v12Zm8.3-5h5.2l-2.6-6.5-2.6 6.4Zm-2 5h-2.1l6-13.7h1.7L172 78h-2l-1.4-3.4H162l-1.4 3.4Zm23.8-2.8v-11h2V78h-2.4l-7.3-11.2V78h-2V64.3h2.6l7.1 11Zm11.1 2.8h-2V66h-4.3v-1.7H200V66h-4.4v12Z" fill="#373535"/></g></svg>