<svg xmlns="http://www.w3.org/2000/svg" viewBox="0 0 856 278.3"><path opacity=".9" d="M0 278.3h524v-42.7h-11.3v31.3H11.9V11.3h500.8v31.4H524V0H0z"/><path d="M80.4 177.7v-77.4h7.8v77.4zm93-77.4h7.8v78.1h-8.7l-44.1-67v66.2h-7.8v-77.4h8.9l43.8 66.3zm59.8 71.9c2.7 0 5.2-.4 7.4-1.1s4.1-1.8 5.8-3.1a15 15 0 0 0 3.8-4.6 12.7 12.7 0 0 0 0-11.6c-.9-1.6-2.2-3.1-3.9-4.3a31.5 31.5 0 0 0-6.1-3.3c-2.4-.9-5.1-1.9-8.2-2.8-2.7-.8-5.4-1.8-8.1-2.8a28.1 28.1 0 0 1-7.2-4.1 20 20 0 0 1-5.2-6 18 18 0 0 1-2-8.7c0-3 .6-5.9 1.9-8.5a21.2 21.2 0 0 1 13.1-11c3-1 6.4-1.5 9.9-1.5a40.7 40.7 0 0 1 23.3 6.6l-2.8 6.9a38 38 0 0 0-20.3-6.4c-2.9 0-5.4.4-7.6 1.1-2.1.7-3.9 1.7-5.4 2.9a12.5 12.5 0 0 0-4.3 9.3 10.7 10.7 0 0 0 5.4 9.5c1.7 1.2 3.8 2.2 6.2 3.2 2.4 1 5.1 1.9 8 2.8 2.8.8 5.5 1.8 8.2 2.9s5.1 2.5 7.2 4.3c2.1 1.7 3.8 3.8 5.1 6.3 1.3 2.5 1.9 5.5 1.9 8.9 0 3.2-.6 6.2-1.9 8.9a23.2 23.2 0 0 1-5.3 7.1c-2.3 2-5 3.5-8.2 4.6a32.7 32.7 0 0 1-10.6 1.7 44.6 44.6 0 0 1-24.9-7.2l2.8-7.1c3.1 2.1 6.5 3.9 10.2 5.2 3.3 1.3 7.4 1.9 11.8 1.9m53.6 5.5v-77.4h7.8v77.4zm102.4-39.3c0 6.1-.9 11.6-2.8 16.4a34.7 34.7 0 0 1-8.1 12.3 35 35 0 0 1-13.1 7.8c-5.2 1.8-11 2.7-17.6 2.7h-20.4v-77.4h21c6.4 0 12.1.9 17.1 2.7a34 34 0 0 1 21 19.8c1.9 4.8 2.9 10 2.9 15.7m-7.8.7a30 30 0 0 0-8.8-23.1 35.2 35.2 0 0 0-24.9-8.3H335v62.8h12.9c5 0 9.5-.6 13.6-1.9a26.5 26.5 0 0 0 17.4-15.6c1.7-4.1 2.5-8.7 2.5-13.9m35.9 38.6v-77.4H464v7.3h-38.9v27.8h32.4v7.1h-32.4v27.8H464v7.3zm82.9 0h-7.8v-77.4h20.8c9.6 0 16.6 2 21.2 6.1 4.6 4 6.9 9.4 6.9 16.2 0 2.9-.5 5.5-1.4 7.9a21.5 21.5 0 0 1-9.5 10.8 29 29 0 0 1-7 3l21.4 33.3h-9.2l-19.8-31.9-15.6 1zm13.9-38.6c2.6-.1 5-.5 7.4-1.2 2.3-.7 4.4-1.8 6.2-3.2a14.4 14.4 0 0 0 5.8-11.8c0-5.1-1.8-9-5.5-11.6a27 27 0 0 0-15.7-3.9h-12.1v32.2z"/><path d="M666.5 125.1c0 9.1-3 16-8.8 20.8a39.6 39.6 0 0 1-25.6 7.2l-7.6.1v22.4h-19.7V98.2h28.6c5.4 0 10.2.7 14.3 2 4.1 1.3 7.5 3.2 10.3 5.5 2.8 2.4 4.9 5.2 6.3 8.5 1.5 3.3 2.2 6.9 2.2 10.9m-19.5.5c0-7.8-5-11.8-15-11.8h-7.9V138l7.9-.1c5.1-.1 8.9-1.2 11.3-3.2 2.4-2.1 3.7-5.2 3.7-9.1m63.5 50h-19.7V98.2h31.1c10.3 0 18.1 2.2 23.4 6.6a22 22 0 0 1 7.9 17.9c0 5.2-1.3 9.7-4 13.6a25 25 0 0 1-11.8 8.7l19.8 30.6H735l-15.5-26-9 .7zm9.5-40.1c4.2-.3 7.4-1.4 9.7-3.2 2.2-1.8 3.3-4.6 3.3-8.3 0-6.8-4.9-10.2-14.6-10.2h-8.3v21.9zm136 1.1c0 6.1-1 11.7-3.1 16.7a38.4 38.4 0 0 1-37.6 24.1c-5.7 0-11-.9-16-2.7-5-1.8-9.2-4.4-12.8-7.7a36.4 36.4 0 0 1-8.5-12.6c-2.1-5-3.1-10.8-3.1-17.3 0-6.1 1-11.7 3.1-16.7s4.9-9.3 8.5-12.9c3.6-3.5 7.9-6.3 12.9-8.2a48.4 48.4 0 0 1 32.1-.3 35.4 35.4 0 0 1 21.3 20.3c2.2 5 3.2 10.8 3.2 17.3m-19.8.5c0-3.7-.5-7.1-1.4-10.1-1-3.1-2.3-5.7-4.1-7.9-1.8-2.2-4-3.9-6.6-5.1a21 21 0 0 0-8.8-1.8c-6.6 0-11.7 2.2-15.2 6.7a28 28 0 0 0-5.3 17.6c0 3.7.5 7.1 1.4 10.2a22 22 0 0 0 4.1 7.9c1.8 2.2 4 3.9 6.6 5.1a21 21 0 0 0 8.8 1.8 18.9 18.9 0 0 0 15.2-6.8c1.8-2.1 3.1-4.7 4-7.7.8-3 1.3-6.3 1.3-9.9" fill="#12D8EF"/></svg>