<svg xmlns="http://www.w3.org/2000/svg" style="isolation:isolate" viewBox="55.2 -216.7 528.2 122.4"><defs><clipPath id="a"><path d="M55.2-216.7h528.2v122.4H55.2z"/></clipPath></defs><g clip-path="url(#a)"><path d="M85.8-111c-1.4 0-2.7-.2-4-.5a12.6 12.6 0 0 1-5.8-3.4 15.3 15.3 0 0 1-3.3-6.6c-.3-1.4-.4-3-.4-4.4v-23A15.5 15.5 0 0 1 74-157a11.7 11.7 0 0 1 7.9-6.3 15.8 15.8 0 0 1 7.7 0 12 12 0 0 1 7.9 6.3 15.5 15.5 0 0 1 1.7 8v23.1a16.3 16.3 0 0 1-1.7 8.1 12.7 12.7 0 0 1-4.6 5 15.4 15.4 0 0 1-7.1 1.8m-16 12.7a27.4 27.4 0 0 1-10.9-11.4 34.5 34.5 0 0 1-3.8-16.6v-22.3c0-3 .4-5.9 1-8.8a32.5 32.5 0 0 1 7.5-14.3 27.2 27.2 0 0 1 13.7-7.9 34.8 34.8 0 0 1 24.4 3 27 27 0 0 1 10.9 11.4 39.2 39.2 0 0 1 3.8 16.6v22.3a39.3 39.3 0 0 1-3.8 16.6 28.4 28.4 0 0 1-10.9 11.4 28.6 28.6 0 0 1-7.5 3 35.2 35.2 0 0 1-24.4-3m75.5-65.2H163a9 9 0 0 1 2.3.3 6.5 6.5 0 0 1 3.3 2l1.1 1.9c.4.7.7 1.5.8 2.3a14.3 14.3 0 0 1-.8 8 7.6 7.6 0 0 1-2.6 3.2 7.2 7.2 0 0 1-4 1h-17.8zm43 9.4c0 2.3-.2 4.7-.8 7a25.2 25.2 0 0 1-6.3 11.6 23.4 23.4 0 0 1-6.5 4.5l18.9 35.8h-19.7L157-128.4h-11.7v33.3h-16.9v-84.6h34.2c2.3 0 4.7.3 7 .8a25.6 25.6 0 0 1 11.6 6.3 22.8 22.8 0 0 1 6.4 11.5c.5 2.3.8 4.7.7 7" fill-rule="evenodd" fill="#414141"/><path d="M217.6-111.4V-129h33.6v-16.3h-33.6v-18.1H257v-16.3h-56.3v84.5H257v-16.2z" fill="#414141"/><path d="M309.4-151c0-.8-.2-1.6-.4-2.4a13.1 13.1 0 0 0-3.3-6.6 11.7 11.7 0 0 0-5.8-3.4 15.8 15.8 0 0 0-7.8 0 12 12 0 0 0-7.8 6.4 15.5 15.5 0 0 0-1.7 8v23.1a16.3 16.3 0 0 0 1.7 8.1 12.7 12.7 0 0 0 4.6 5c1 .6 2.1 1 3.2 1.3a15.4 15.4 0 0 0 7.8 0 12.6 12.6 0 0 0 5.9-3.4 15.3 15.3 0 0 0 3.5-8l17.2-.1c-.2 1.8-.4 3.7-.8 5.5a32.3 32.3 0 0 1-7.5 14.3 27.4 27.4 0 0 1-13.7 7.9 35.3 35.3 0 0 1-24.4-3 27.7 27.7 0 0 1-10.9-11.4 39.3 39.3 0 0 1-3.8-16.6v-22.3c0-3 .3-5.9 1-8.8a32 32 0 0 1 7.4-14.3 27.2 27.2 0 0 1 13.8-7.9 34.7 34.7 0 0 1 24.4 3 27.2 27.2 0 0 1 10.8 11.4 32.5 32.5 0 0 1 3.7 14.2z" fill="#414242"/><path d="M367.7-111c-1.4 0-2.7-.2-4-.5a12.6 12.6 0 0 1-5.8-3.4 15.3 15.3 0 0 1-3.3-6.6c-.3-1.4-.4-3-.4-4.4v-23a15.5 15.5 0 0 1 1.7-8.1 12.5 12.5 0 0 1 4.6-5c1-.7 2.1-1.1 3.3-1.4a15.8 15.8 0 0 1 7.7 0 11.9 11.9 0 0 1 7.9 6.4 16 16 0 0 1 1.3 3.6c.3 1.5.4 3 .4 4.4v23.1a15.8 15.8 0 0 1-1.7 8 12.3 12.3 0 0 1-4.6 5c-1 .7-2.1 1.1-3.3 1.4-1.2.3-2.6.5-3.9.5m-16 12.7a27.4 27.4 0 0 1-10.9-11.4 32 32 0 0 1-2.8-7.8c-.6-2.9-1-5.8-1-8.8v-22.3c0-3 .4-5.9 1-8.8a32 32 0 0 1 7.4-14.3 27.5 27.5 0 0 1 13.8-7.9 34.8 34.8 0 0 1 24.4 3 27.5 27.5 0 0 1 10.9 11.4 32 32 0 0 1 2.8 7.8c.6 3 1 5.9 1 8.8v22.3a39.3 39.3 0 0 1-3.8 16.6 28.4 28.4 0 0 1-10.9 11.4 28.8 28.8 0 0 1-7.5 3 35.2 35.2 0 0 1-24.4-3m101.1-55.8a13.3 13.3 0 0 1-1 5.2 8 8 0 0 1-1.2 1.8 6.6 6.6 0 0 1-3.4 2c-.7.2-1.4.3-2.2.3h-17.7v-18.7h17.7a9 9 0 0 1 2.3.3c.6.2 1.2.4 1.8.8a6.7 6.7 0 0 1 2.6 3 10.9 10.9 0 0 1 1 5.3zm17.5 0c0 2.3-.2 4.7-.8 7a24.9 24.9 0 0 1-6.3 11.6 23.4 23.4 0 0 1-6.6 4.5l19 35.8h-19.7l-16.9-33.3h-11.7v33.3h-16.9v-84.6h34.2c2.3 0 4.7.3 7 .8a25.5 25.5 0 0 1 11.6 6.3 23.4 23.4 0 0 1 6.3 11.5c.6 2.3.9 4.7.8 7z" fill-rule="evenodd" fill="#414141"/><path d="M449.3-216.7h67.1v27.4h-67.1zm33.5 37h67.1v27.4h-67.1zm33.5 38.1h67.1v27.4h-67.1z" fill="#578AC8"/></g></svg>