<svg xmlns="http://www.w3.org/2000/svg" xmlns:xlink="http://www.w3.org/1999/xlink" viewBox="0 0 630 630"><defs><linearGradient x1="50%" y1="0%" x2="50%" y2="100%" id="a"><stop stop-color="#EBBB14" offset="0%"/><stop stop-color="#B25400" offset="100%"/></linearGradient><linearGradient x1="50%" y1="0%" x2="50%" y2="100%" id="d"><stop stop-color="#F9E583" offset="0%"/><stop stop-color="#DE9800" offset="100%"/></linearGradient><linearGradient x1="50%" y1="0%" x2="50%" y2="100%" id="e"><stop stop-color="#F9E68B" offset="0%"/><stop stop-color="#F3CD32" offset="100%"/></linearGradient><filter x="-9.1%" y="-6.3%" width="136.5%" height="116.9%" filterUnits="objectBoundingBox" id="b"><feOffset dx="20" dy="10" in="SourceAlpha" result="shadowOffsetOuter1"/><feGaussianBlur stdDeviation="10" in="shadowOffsetOuter1" result="shadowBlurOuter1"/><feColorMatrix values="0 0 0 0 0 0 0 0 0 0 0 0 0 0 0 0 0 0 0.0530211976 0" in="shadowBlurOuter1"/></filter><path d="M346 604v26H153a26 26 0 0 1-26-26V183a26 26 0 0 1 26-26h167a26 26 0 0 1 26 26z" id="c"/></defs><g transform="translate(77.5)" fill="none" fill-rule="evenodd"><rect fill="url(#a)" x="256" width="219" height="630" rx="26"/><use fill="#000" filter="url(#b)" xlink:href="#c"/><use fill="url(#d)" xlink:href="#c"/><path d="M219 604v26H26a26 26 0 0 1-26-26V341a26 26 0 0 1 26-26h167a26 26 0 0 1 26 26z" fill="url(#e)"/></g></svg>