<svg version="1.0" xmlns:xlink="http://www.w3.org/1999/xlink" xmlns="http://www.w3.org/2000/svg" viewBox="0 0 122.8 134.7"><defs><linearGradient id="c"><stop offset="0" stop-color="#b8b8b8" stop-opacity=".5"/><stop offset="1" stop-color="#7f7f7f" stop-opacity="0"/></linearGradient><linearGradient id="a"><stop offset="0" stop-color="#ffd43b"/><stop offset="1" stop-color="#ffe873"/></linearGradient><linearGradient id="b"><stop offset="0" stop-color="#5a9fd4"/><stop offset="1" stop-color="#306998"/></linearGradient><linearGradient xlink:href="#a" id="e" gradientUnits="userSpaceOnUse" gradientTransform="matrix(.56254 0 0 .56797 -15 -11.7)" x1="151" y1="192.4" x2="112" y2="137.3"/><linearGradient xlink:href="#b" id="d" gradientUnits="userSpaceOnUse" gradientTransform="matrix(.56254 0 0 .56797 -15 -11.7)" x1="26.6" y1="20.6" x2="135.7" y2="114.4"/><radialGradient xlink:href="#c" id="f" gradientUnits="userSpaceOnUse" gradientTransform="matrix(0 -.23995 1.05467 0 -83.7 142.5)" cx="61.5" cy="132.3" fx="61.5" fy="132.3" r="29"/></defs><path d="M55 0c-4.8 0-9 .4-13 1-11.2 2.2-13.3 6.4-13.3 14v10.3h26.8v3.4H18.7c-7.9 0-14.7 4.6-16.8 13.6a50.1 50.1 0 0 0 0 27.2c1.9 8 6.4 13.6 14.2 13.6h9.3V70.8A17 17 0 0 1 42 54.2h27c7.4 0 13.4-6.1 13.4-13.6V15c0-7.2-6.1-12.7-13.4-14-4.6-.7-9.4-1-14-1M40.3 8.2a5 5 0 0 1 5 5.1 5 5 0 0 1-5 5.1 5 5 0 0 1-5-5 5 5 0 0 1 5-5.2" fill="url(#d)"/><path d="M85.6 28.7v11.9c0 9.2-7.8 17-16.7 17H42c-7.3 0-13.4 6.2-13.4 13.6v25.5c0 7.3 6.3 11.6 13.4 13.6 8.5 2.5 16.6 3 26.8 0 6.7-2 13.4-5.8 13.4-13.6V86.5H55.5v-3.4h40.2c7.8 0 10.7-5.4 13.4-13.6a46 46 0 0 0 0-27.2c-2-7.8-5.6-13.6-13.4-13.6zm-15 64.6a5 5 0 0 1 5 5.1 5 5 0 0 1-5 5.1 5 5 0 0 1-5-5 5 5 0 0 1 5-5.2" fill="url(#e)"/><ellipse cx="55.8" cy="127.7" rx="35.9" ry="7" opacity=".4" fill="url(#f)"/></svg>