<svg xmlns="http://www.w3.org/2000/svg" viewBox="-1 -1 177.4 36.6"><path d="m161 11.5 5 15.7 5.5-15.7h3.8l-7.8 21.1h-3.1L159.3 17l-5.2 15.7H151l-7.4-21.1h3.9l5.3 15.7 5.2-15.7zm-22.8 8.6c-.3-5.6-4.3-6.5-6-6.5-3.1 0-5.7 2.2-6.1 6.5zm3.9 6c-.5 1.5-2.4 7.2-9.6 7.2-6.3 0-10.4-4.3-10.4-11.4 0-8 5.8-11 10.3-11 3.9 0 8 2 9.3 7.4q.5 2.8.4 4.3H126c0 3.6 1.8 8 6.8 8 3.2 0 5-2.1 5.6-5zm-24 6.5h-3.4V11.5h3.5zm0-27.5h-3.4V1h3.5zM108 1h4.4l-11.1 31.6H97L86.3 1h4.5l8.4 26.4z" fill="#62ac1e"/><path d="M7.8 16.6c0-5.8 3-10 7.9-10q3.4.1 5.5 2.3c1.8 2 2.7 5.3 2.6 8.7-.2 6.6-4.3 9.3-8 9.3s-8-2.8-8-10.3m26.7 12.7-4.8-4a18 18 0 0 0 2-8.3c0-2.1-.6-12.7-10.3-16q-3-1-5.8-1C5.4 0 0 8.1 0 16.7c0 9.2 5.7 16.9 15.8 16.9 3.1 0 6.5-.7 9.5-3l4.7 4zM62.3 1h6.8v16.3l7.6-8H85l-8 8.3 9 15h-8l-6-10-3 2.8v7.3h-6.7zM50 9.2h6.8v23.5H50zm0-8.3h6.8v5.4H50zm-5.7 31.8h-6.9V1h7z" fill="#363636"/></svg>