<svg xmlns="http://www.w3.org/2000/svg" viewBox="0 0 51.76 13.5" version="1.1" id="prefix__svg1" xml:space="preserve"><defs id="prefix__defs1"><style id="style1">.prefix__cls-1{fill:#00dc06}</style></defs><g id="prefix__layer1" transform="translate(-34.55 -56.47)"><g id="prefix__g1" transform="translate(12.66 33.32)scale(.26458)"><g id="prefix__g2659"><path id="prefix__path2629" class="prefix__cls-1" d="M199.36 87.5c-10.34 0-17.1 7.09-17.1 18.81 0 14.53 10.34 18.7 17.75 18.7a20.3 20.3 0 0 0 14.71-6.29l-4.78-4.72a13.8 13.8 0 0 1-9.82 3.63c-5.77 0-9.65-3.36-9.65-8h25.7s4.46-22.11-16.81-22.11m-8.92 15.77c0-6.23 4.73-9.21 9.78-9.21s9.68 3.07 9.68 9.21z"/><path id="prefix__path2631" class="prefix__cls-1" d="M104.74 102.71c-3.31-.44-12.82 0-12.82-4.4 0-2.55 4-4 7.65-4a20 20 0 0 1 10.91 3.1l5-4.9a25.4 25.4 0 0 0-15.79-5c-8.12 0-15.45 4.25-15.45 11C84.19 109 96.81 109 102 109.45c3.18.35 6.08.53 6.08 3.64s-4.46 4.52-7.88 4.52a16.7 16.7 0 0 1-12.2-4.82l-5.29 5.34a24.4 24.4 0 0 0 17.16 6.81c9.45 0 16.35-4.17 16.35-12.53 0-5.45-3.74-8.83-11.33-9.81"/><path id="prefix__path2633" class="prefix__cls-1" d="M131.87 87.5a23 23 0 0 0-14.54 5l5 4.91a15.5 15.5 0 0 1 9.56-3.13c6.28 0 8.18 2.51 8.18 5.34v3.6h-11.18c-4.16 0-12.28 1-12.28 10.16 0 6.7 3.82 11.61 13 11.61a13 13 0 0 0 10.49-4.34v3.63h8.12v-24c0-8.42-5.15-12.75-16.36-12.75m8.29 23.62c0 7-5 6.58-9.36 6.58s-7.27-1.18-7.27-4.3 2.31-3.88 7.12-3.88h9.56z"/><path id="prefix__path2635" class="prefix__cls-1" d="M173.28 88.33v4a13.2 13.2 0 0 0-10.58-4.78c-7.7 0-11.66 4.31-13 8.92a42 42 0 0 0-.64 9.78c0 4.54 0 8.7 1.6 11.86a13.9 13.9 0 0 0 12 7 13.7 13.7 0 0 0 10.58-4.64v2.28a6.7 6.7 0 0 1-2.6 5.73 10.3 10.3 0 0 1-6.79 2.22 12.4 12.4 0 0 1-6.73-2.47l-5.45 5.45a20 20 0 0 0 12.38 4.83 18.7 18.7 0 0 0 12.11-4.1 16.2 16.2 0 0 0 5.35-12.56V88.33Zm0 17.94a37 37 0 0 1-.27 6 7.8 7.8 0 0 1-8 5.45c-1.22 0-7.27-.7-8.07-6a36 36 0 0 1-.24-5.31 32 32 0 0 1 .38-6.5 7.8 7.8 0 0 1 7.93-5.2c5.81 0 7.7 4 8 5.45a43 43 0 0 1 .27 6.18"/></g><path d="m251.1 122.06-9.28-13.87-9.19 13.87h-2.83l10.52-15.67-10.07-15.14H233l8.8 13.16 9-13.16h2.77l-10.38 15 10.69 15.85zm6.9-25.51c.55-4 3.45-8 9.65-8s9.2 4 9.2 8.25a6.86 6.86 0 0 1-4.6 6.9v.11c3.5 1 6.1 3.75 6.1 8.55 0 5.55-3.5 10.3-10.8 10.3-6.7 0-10.05-4.35-10.65-8.75h2.6a8 8 0 0 0 8.25 6.35c5.65 0 7.85-3.8 7.85-7.8 0-5.26-3.45-7.36-8.3-7.36h-2v-2.29h1.55c5 0 7.25-2.11 7.25-6 0-3.45-2.4-5.85-6.6-5.85-4.35 0-6.25 2.3-7.05 5.6z" fill="#b0aeab" id="prefix__path1"/></g></g></svg>