
<svg xmlns="http://www.w3.org/2000/svg" style="isolation:isolate" viewBox="19 653.7 82.9 33.1"><path d="M19 653.7h83v15.8H19v-15.8Z" fill="#23346A"/><path d="M19 671h83v15.8H19V671Z" fill="#009340"/><path d="M34 665.4h-2.8c-1.4 0-2.9-.2-2.9-2v-.7h1.2v.6c0 .6.3 1 1.6 1h3.1c1.5 0 1.8-.3 1.8-1.3 0-.7-.2-1-1.5-1h-2c-3 0-4.2-.2-4.2-2.3 0-1.9 1.2-2.2 3.3-2.2h2.1c2.4 0 3.3.6 3.3 2v.4h-1.2c0-1.1 0-1.3-2.7-1.3h-1c-2 0-2.5.1-2.5 1.2 0 .7.1 1 1.7 1h3c2 0 2.9.6 2.9 2v.5c0 2-2 2-3.1 2m13.3 0h-7.6v-7.7h7.6v1.1H41v2h6v1.2h-6v2.3h6.5v1.1Zm7.6 0h-1.3l-4.2-7.5-.1-.2h1.4l3.6 6.4 3.5-6.4h1.5l-.1.2-4.2 7.4v.1Zm14.2 0h-7.6v-7.7h7.6v1.1h-6.3v2h6v1.2h-6.1v2.3h6.5v1.1Zm11.1 0H79v-1.8c0-1-.4-1.1-1.4-1.1H73v2.9h-1.3v-7.7h6.2c2.2 0 2.6.7 2.6 2.2v.6c0 1-.5 1.3-1 1.5.6.2.9.7.9 1.4v2Zm-7.4-4h4.7c1.3 0 1.5-.4 1.5-1v-.7c0-.6-.2-1-1.7-1h-4.5v2.7Zm19.7 4h-1.7l-6.6-6.4v6.4H83v-7.7h1.7l6.6 6.3v-6.3h1.3v7.7ZM39 682.6h-1.3V676H34v-1.1h8.7v1.1H39v6.6Zm14.6 0h-1.2v-1.8c0-1-.4-1.1-1.3-1.1h-4.8v2.9H45v-7.7h6c2.2 0 2.6.7 2.6 2.2v.6c0 1-.4 1.3-1 1.5.7.2 1 .7 1 1.4v2Zm-7.3-4H51c1.2 0 1.4-.4 1.4-1v-.7c0-.6-.1-1-1.7-1h-4.4v2.7Zm17.7 4h-7.7v-7.7H64v1.1h-6.4v2h6.1v1.2h-6.1v2.3H64v1.1Zm12 0h-1.6l-6.7-6.4v6.4h-1.3v-7.7h1.7l6.7 6.3V675H76v7.6Zm7.4 0H82V676h-3.7v-1.1H87v1.1h-3.7v6.6Z" fill="#FFF"/></svg>