<svg viewBox="0 0 752 752" xmlns="http://www.w3.org/2000/svg"><g fill-rule="evenodd"><path class="prefix__hd-Logo_SvgText" d="M157 255.3a43 43 0 0 0 28.6 10.5c17.3 0 29.7-11.3 29.7-25.1 0-16.2-13.2-23.6-28.6-29.8-11-4.6-17-9.2-17-16.8 0-5 4-12 15.1-12 7.7 0 17 6.2 18 6.7 1.8 1.2 3.6.4 4.6-1.3l3.4-5c1.3-2.1.2-4-.8-4.6a45 45 0 0 0-24.7-7.9c-21.1 0-29.1 14.2-29.1 24.7 0 15.4 10.6 22.4 24.2 28.1 13.2 5.5 20 10.6 20 18.6 0 6.7-5.8 12.3-14.9 12.3-10.2 0-20.5-8.5-21.3-9.1-1.5-1.3-3.4-.7-4.5 1l-3.5 5.5c-1.3 2.2-.4 3.2.8 4.2m378.7 0a43 43 0 0 0 28.6 10.5c17.4 0 29.8-11.3 29.8-25.1 0-16.2-13.2-23.6-28.7-29.8-11-4.6-16.9-9.2-16.9-16.8 0-5 4-12 15-12 7.8 0 17 6.2 18 6.7 2 1.2 3.6.4 4.7-1.3a229.7 229.7 0 0 0 3.3-5c1.3-2.1.3-4-.7-4.6a45 45 0 0 0-24.7-7.9c-21.1 0-29.2 14.2-29.2 24.7 0 15.4 10.7 22.4 24.3 28.1 13.2 5.5 20 10.6 20 18.6 0 6.7-5.7 12.3-15 12.3-10.1 0-20.5-8.5-21.2-9.1-1.5-1.3-3.4-.7-4.6 1-1.1 1.8-2.2 3.7-3.5 5.5-1.3 2.2-.3 3.2.8 4.2M308.1 170a47.8 47.8 0 0 0-47.8 48 47.5 47.5 0 0 0 47.8 47.8 47.6 47.6 0 0 0 47.8-47.7c0-26.6-21.2-48-47.8-48m0 82.4a34.5 34.5 0 1 1 .1-69 34.5 34.5 0 0 1-.1 69m97.5-22.7c0 20.2 15.1 36 36 36 21 0 36.3-15.8 36.3-36v-55.9c0-1.4-1.1-2.5-2.5-2.5h-9a2.5 2.5 0 0 0-2.4 2.5v55.2c0 13.2-8.7 23.4-22.4 23.4-13.6 0-22-10.4-22-23.7V174a2.5 2.5 0 0 0-2.6-2.5h-9a2.6 2.6 0 0 0-2.4 2.5zM145.4 535a47.7 47.7 0 0 0 80.4 34.8c1-.9 1.2-2.6.1-3.5l-6.1-6c-.8-.7-2-.8-3.2.1a35.6 35.6 0 0 1-22.9 8.8 34 34 0 0 1-33.5-34.5 34 34 0 0 1 33.4-34.6 36 36 0 0 1 23 9c1.2 1.1 2.4 1.1 3.3 0l5.9-6c1-1.1 1-2.7-.2-3.8a48 48 0 0 0-80.2 35.7m132.8 44c0 1.3 1.2 2.5 2.5 2.5h8.8c1.4 0 2.5-1.2 2.5-2.5v-38.5h48.7V579c0 1.3 1 2.5 2.5 2.5h8.8c1.4 0 2.5-1.2 2.5-2.5v-88.1c0-1.3-1.1-2.5-2.5-2.5h-8.8a2.5 2.5 0 0 0-2.5 2.5V528H292v-37c0-1.3-1-2.5-2.5-2.5h-8.8a2.7 2.7 0 0 0-2.5 2.5zm138.2 0c0 1.4 1 2.6 2.5 2.6h53.2c1.5 0 2.6-1.2 2.6-2.5v-7.3a2.5 2.5 0 0 0-2.6-2.6h-42v-28.6h35.6a2.5 2.5 0 0 0 2.4-2.5v-7.5c0-1.3-1.1-2.5-2.4-2.5H430V501h42a2.5 2.5 0 0 0 2.6-2.5V491a2.5 2.5 0 0 0-2.6-2.5h-53a2.5 2.5 0 0 0-2.5 2.5zm127.2 0a2.6 2.6 0 0 0 2.5 2.6h8.7c1.3 0 2.5-1.2 2.5-2.5v-35h35.5c1.4 0 2.6-1.2 2.6-2.5v-7.3c0-1.4-1.2-2.6-2.6-2.6h-35.5V501h42c1.5 0 2.6-1.2 2.6-2.5V491c0-1.3-1.1-2.5-2.5-2.5H546a2.6 2.6 0 0 0-2.5 2.5z"/><path class="prefix__hd-Logo_SvgKnife" d="M132 337h210l2.8 6.4s220.4-7 285 33.6c-38.5 22.7-150.6 43.6-242.7 46.3-7 .3-13.7.3-20.3.3.4-9.7-.9-48.5-.9-48.5L345 374l-1.8 6.5-210.7 4.6s-3.3-10.6-3.4-22.1c-.1-12.5 3-26 3-26"/><path class="prefix__hd-Logo_SvgCircle" d="M375.6 752A376 376 0 0 1 0 376.4 376 376 0 0 1 375.6.8a376 376 0 0 1 375.6 375.6A376 376 0 0 1 375.6 752m0-737.2A362 362 0 0 0 14 376.4 362 362 0 0 0 375.6 738a362 362 0 0 0 361.6-361.6A362 362 0 0 0 375.6 14.8"/></g></svg>