<svg xmlns="http://www.w3.org/2000/svg" style="isolation:isolate" viewBox="287.9 141.5 403.1 441.2"><linearGradient id="a" x1=".3" y1=".8" x2=".4" y2=".7" gradientTransform="matrix(256.681 0 0 235.213 287.9 347.5)" gradientUnits="userSpaceOnUse"><stop offset="0%" stop-color="#909ca9"/><stop offset="100%" stop-color="#ededee"/></linearGradient><path d="M542.4 347.5 454 376.3l-76.8 34-21.5 5.6a468.4 468.4 0 0 1-35.5 31 134.5 134.5 0 0 0-17.5 17.3 78.7 78.7 0 0 0-13 22 36.8 36.8 0 0 0 5.3 33c9 13.3 27.1 27 48.2 36.2a306.7 306.7 0 0 0 42.5 14.3 565 565 0 0 0 90.6 12.9c4.8.2 11.4.2 11.7 0a413.6 413.6 0 0 0 40-99.2c3.4-14.8 6.1-34.3 7.9-57.5.5-6.5.7-28.2.3-35.5-.6-12-1.7-21.8-3.4-31.4-.2-1.4-.3-2.6-.2-2.7.3-.2 1.1-.5 12-3.6zm-20.2 11.8a216.3 216.3 0 0 1 3.4 38c-.5 0-11.3-6.3-19-11.1a508.7 508.7 0 0 1-21.3-14.3c-.7-.4-.6-.5 4.9-2.4 9.2-3.1 31.3-10.2 32-10.2m-45 14.8c.6 0 2.1.9 5.8 3.2a414 414 0 0 0 40.5 22.5c2.5 1 2.7.6-3 4.5a291 291 0 0 1-52 27.3l.9-3.7a197 197 0 0 0 7.1-47c.1-6.6.1-6.6.7-6.8-.1 0 0 0 0 0m-9.3 3.6c.4.4.2 15.3-.4 19.4a170 170 0 0 1-7.7 33.7c-.2.4-9.4-8.6-12.4-12-5.2-6-9.3-12-12.3-18-1.5-3-4-8.8-3.7-9 1-.8 36.3-14.4 36.5-14.1m-43.7 17.1.2.1a90.3 90.3 0 0 0 12 22.2 113 113 0 0 0 18.8 19.5c.4.4.6.3-10.3 4.4a847.2 847.2 0 0 1-53.4 18.4c-.6.2-.4-.1 1.3-2.9a375.5 375.5 0 0 0 28.8-59.7c.3-.9.6-1.2 1.5-1.7zm-13.3 5.6a517.3 517.3 0 0 1-33 59.2c-.3.5-.4.3-1.5-1.7a61.2 61.2 0 0 1-5.1-15.5c-1-5.2-.8-14.3.3-20 .9-4 .8-4 2.8-5 8.6-4.3 36.2-17.3 36.5-17M526 405v2.8a363.3 363.3 0 0 1-4.8 55l-4.2-1.2a172.3 172.3 0 0 1-46.3-22.8l6.1-3.3a388.5 388.5 0 0 0 36.6-21.4 184 184 0 0 0 11.5-8.3zm-165.6 19.7c.2 0 .2.6-.2 3a95 95 0 0 0-.8 7.1c-.5 9.8 1.1 17 6 26.8l2.3 5.1c-.5.4-44.7 13.4-58.6 17.2l-8 2.2c-.5.1-.6 0-.4-1 1.6-9.9 9-22.7 19.5-33.5 7-7.2 12.5-11.5 22-16.9l18-10zm104.1 18.6 3.7 2c14.2 8.3 34.1 16 51.1 19.9l1.5.3-2.1 1.2a740.2 740.2 0 0 1-78.9 32.3l2.8-5.3a329.6 329.6 0 0 0 21-47.9zM454 447a422.8 422.8 0 0 1-29 57.7l-4.4-2.7a137.3 137.3 0 0 1-34.9-29.7l-1.2-1.4 6-1.7A435.9 435.9 0 0 0 454 447m66 23s0 .1 0 0a263 263 0 0 1-6.1 25.3 723.4 723.4 0 0 1-11.1 35.7s-.5 0-.9-.2a279.1 279.1 0 0 1-66-20.5 70 70 0 0 1 9-4.2 902.5 902.5 0 0 0 75.1-36m-152.3 5.3c.1.1-8.4 12.3-20.2 29l-10.8 15.1c-1.8 2.5-4.5 6.6-6 9l-2.9 4.3-3-2.5c-3.5-3-9.7-9.3-12.4-12.7a54.8 54.8 0 0 1-11.2-21.6c-.7-3.2-.7-4.8 0-5a5038 5038 0 0 1 66.5-15.6m8.5 3.2 2.2 2.4a125.4 125.4 0 0 0 31.3 25.7c2.1 1.2 3.7 2.3 3.6 2.3a4079.7 4079.7 0 0 1-79.6 28.1l-1.3-.8-1.2-.9 1.9-2.8c6.3-9 14.2-19 31.3-39.7zm53.3 38.2 6.6 2.3a204 204 0 0 0 24.8 7.7 271.3 271.3 0 0 0 39.5 6.9c-.5.3-10.3 3.6-17.5 5.8a4753.2 4753.2 0 0 1-85.2 25c-.7.2-2.9-.4-2.9-.6a396.5 396.5 0 0 0 30.7-41zm-11.7.3-13 20.8-8.9 14-4.4 7.3-2 3.5-1-.3c-2.4-.7-19.3-6.6-23.8-8.4-5.5-2.2-11.2-5-15.5-7.2a65 65 0 0 1-11.5-7.3L358 534a1654.3 1654.3 0 0 0 59.8-16.9m83.1 19.5c.3.7-10.5 30.7-14.4 40.2-.9 2.1-1.2 2.7-1.7 2.6-1.1 0-16.8-2.3-26.4-3.7a1218 1218 0 0 1-51.5-9l-1.6-.3 10-2.3c21.3-4.8 31.6-7.4 42-10.6 13.2-4 26.2-9 39.3-15.2z" fill="url(#a)"/><linearGradient id="b" x1="0" y1=".5" x2=".2" y2=".5" gradientTransform="matrix(139.501 0 0 83.544 354.9 141.5)" gradientUnits="userSpaceOnUse"><stop offset="0%" stop-color="#939fab"/><stop offset="100%" stop-color="#dcdee1"/></linearGradient><path d="M451.3 141.5a429 429 0 0 0-40.5 14.6 252.7 252.7 0 0 0-46.5 23.4 35.3 35.3 0 0 0-9 9c-.3.7-.4 1.5-.4 2.3l9 8.4 21.2 6.9 50.7 9 58 10 .6-5h-.6l-7.6-1.3-1.5-2.7a516.7 516.7 0 0 1-21.7-42.8c-3.9-9-7.6-19.4-9.7-26.9-1.1-4.5-1.3-4.8-2-4.9m-1 3.4.6 4.2c1.1 9.3 3.2 18.4 6.5 28.1 2.4 7.3 2.4 7-.4 6a831.4 831.4 0 0 0-66-11.1c-.3-.3 16-8.8 23.1-12.1a636 636 0 0 1 36.1-15m-64.5 30 2.7.8a398 398 0 0 0 69.3 13.3l4.2.4-4.2 2.2a368.7 368.7 0 0 0-31.5 17.4l-3.1-.5-2.7-.4-6.7-6.5-24.5-23.6zm-2.6 2 9.4 11.8c5.1 6.5 10.3 12.8 11.5 14.2l2 2.6a292.7 292.7 0 0 1-35.5-7.9l-3.6-1.2v-.9c0-4.5 5.7-11.2 15.3-18zm80 16a292.4 292.4 0 0 0 12.5 23.5c.5 1 1.4 1-8-.5l-29.9-5a130.3 130.3 0 0 0 21.9-15l3.2-2.8c0-.1.2-.2.3-.1" fill="url(#b)"/><radialGradient id="c" fx=".4" fy=".4" cx=".4" cy=".4" r="1" gradientTransform="matrix(370.422 0 0 258.702 320.5 187.6)" gradientUnits="userSpaceOnUse"><stop offset="0%" stop-color="#ee352c"/><stop offset="100%" stop-color="#a91d22"/></radialGradient><path d="M355.7 187.6s-1.4 2.3 0 5.8c.8 2.1 3.4 4.7 6.2 7.4 0 0 29.8 29 33.4 33.1a92.8 92.8 0 0 1 24.2 63.4c.4 16.6-2.7 31.2-10.5 48-14 30.4-43.3 63.8-88.5 101l6.7-2.2c4.2-3.3 10-6.7 23.7-14.1A845 845 0 0 1 461 380.6c62.5-23.5 165.3-51 223.8-60l6-.9-.9-1.5a160.4 160.4 0 0 0-60.8-58.4c-26.2-14.5-60-26-103-34.4-8-1.7-25.8-4.7-40.2-7a4097.1 4097.1 0 0 1-99.4-16.7A173 173 0 0 1 369 197c-4.9-1.9-11.8-3.8-13.3-9.4m17.3 16.6 2.5.9a172.8 172.8 0 0 0 18.5 5.2l7.4 2a530.2 530.2 0 0 1 11 36c-.1.2-.8-1-1.7-2.5a139 139 0 0 0-37.7-41.6m32.8 9.1 3.6.6a1076.7 1076.7 0 0 0 48.7 9.5l-1.8 1.2c-2.2 1-11 6.4-14 8.4a140 140 0 0 0-19 15l-3.5 3.6-.8-2.5a216.3 216.3 0 0 0-13.3-35.8c0 .1 0 0 .1 0m57.8 11a109.4 109.4 0 0 1 5.2 43.7l-.1.8-3.5-1.2a1054.8 1054.8 0 0 0-39-11.5c0-.4 8.3-8.7 11.8-11.9 6.7-5.9 25-20 25.6-19.8m4.7.7A1110 1110 0 0 1 532 237c.4.1-1 1-5.5 3a290 290 0 0 0-50.1 27.9l-.1-4.3a93.3 93.3 0 0 0-8-38.5m71 14c.1.2-.7 5.7-1.5 8.9a167.4 167.4 0 0 1-19.7 43c-.1.2-1.9-.8-4-2-7.7-4.6-16.5-8.9-26.1-12.9-2.7-1.1-5-2-5.1-2.2a385 385 0 0 1 32.4-21.4c9-5.5 23.7-13.6 24-13.4m5 .8a422.4 422.4 0 0 1 64.6 21.9l4.9 2.2-3.4.8a497.7 497.7 0 0 0-80.8 25.3c-.2 0 .5-1.5 1.4-3.4a135.2 135.2 0 0 0 13.3-46.8m-121 27.8a258.5 258.5 0 0 1 38.3 11.4l-4 3.4a482 482 0 0 0-27.2 24.8 96 96 0 0 1-5.7 5.2c-.1 0-.2-.4-.1-1 1.5-11.2 1.2-25.6-1-40.2-.2-2-.4-3.5-.3-3.6m195 .2c.2.2-4.2 7.1-7 11-4 5.8-9.9 13.4-23.2 30a4378 4378 0 0 0-17.5 22.2c-2.6 3.3-4.8 6.1-5 6.1l-1.8-2.6a138 138 0 0 0-33.3-35 684.2 684.2 0 0 1 87.9-31.7m5.2 1.4c.3-.1 1.9.7 3.8 1.8a226.5 226.5 0 0 1 56.8 46.2l-6.6.5a658.3 658.3 0 0 0-103.3 17.4c-.1 0 2.5-2.6 5.8-5.7a170.8 170.8 0 0 0 43.5-60.2m-148.7 15.2a322 322 0 0 1 31.7 15.8l-7.1 3.6a465.5 465.5 0 0 0-40.5 22.6c-.3 0-.2-.3 1.6-3.6 6-10.9 10.8-24 13.6-36.7.2-1 .5-1.7.7-1.7m-8.7 1.6a164.4 164.4 0 0 1-15.3 40l-3.5 6.1-1.7 2.7-3.7-3.6a49 49 0 0 0-12.4-9.2 18 18 0 0 1-3.2-1.8c0-.6 11.4-11 20.1-18.4a353 353 0 0 1 19.7-15.8m53.1 21.8 3.3 2.2a253.9 253.9 0 0 1 35.6 28.3l.8 1-5.4 1.4a980.8 980.8 0 0 0-87.7 28.3c-.4 0-.7.3 6.2-6a293.2 293.2 0 0 0 44.9-51.6zm-14 3.5c.2.1-9 13-14.4 20.3a904.5 904.5 0 0 1-32.6 40c-.2 0-.2-1-.2-2.5a56 56 0 0 0-5.7-24c-1.5-3-1.8-3.8-1.5-4.2a639.8 639.8 0 0 1 54.4-29.6M420.8 332l3.5 1.7c4.3 2.4 8 5 11.5 7.8.1.1-1.6 1.5-3.9 3.2a502 502 0 0 0-21.5 16.3c-6 4.7-6.1 4.8-5.5 3.8a123.1 123.1 0 0 0 16-32.8m22.5 17.6c.4 0 .8.6 2.6 3.2a48.2 48.2 0 0 1 7.5 19.5l.1 1.3-9.2 3.5a826 826 0 0 0-52.8 22.7c-3.2 1.6-6 3-6 2.8l4.7-3.4c20-14.5 37.3-30.4 50.2-46.3zm-10.3 2.6a221.5 221.5 0 0 1-54 47.6l-4 2.5c-.5.3.1-.4 7-8 4.4-4.7 7.8-8.7 11.6-13.6 2.5-3.3 3-3.8 6.7-6.4 9.8-7 32.4-22.4 32.7-22.1" fill="url(#c)"/></svg>