<svg xmlns="http://www.w3.org/2000/svg" viewBox="0 0 158.9 30.2" xml:space="preserve"><g transform="scale(.35556)" stroke-width="1.5"><path class="prefix__st0" d="M125.5 66.3 117 31.5l-9.7 34.8h-9.7l-12.4-38c-.4-1.1-.8-1.2-1.8-1.5l-3.7-.8 1.1-4.8h17.7V26l-5.6.7 9.8 31.5 10.1-35.8h9.2l8.5 35.7 9.8-31.4-5.7-.7 1-4.8h16.6V26l-3.2.5c-1.5.3-1.8.6-2.2 1.8l-11.9 38zM187 43.6c0-11.5-4.2-16.6-12.7-16.6s-13.6 5.1-13.6 16.7q0 17.4 13.2 17.3c8.5 0 13.1-5.4 13.1-17.4m-34.6 0c0-13.8 7-23.3 22-23.3s20.8 9.6 20.8 22.7c0 14.8-6.7 24.3-21.7 24.3-15.2.1-21.1-9.8-21.1-23.7m47 22.7v-4.8l4.4-.5c1.2-.2 1.4-.4 1.4-1.8V29.3q0-1.5-1.1-1.8l-5-1.7.8-4.7h11.5l.9 6.1.3.1c2.9-3.3 7.2-7 13.2-7 2 0 4.7.4 6.3.8v13.3l-6.2-.3-1.1-6.1q0-1-1.1-.9c-4 0-8.4 3.6-10.5 5.5V59c0 1.4.1 1.7 1.4 1.8l8.1.7v4.7zm35.2 0v-4.8l5.4-.5c1.2-.1 1.4-.4 1.4-1.8v-51q0-1.5-1.1-1.8L235 4.7l.8-4.7h13.6v59.2c0 1.4.1 1.6 1.4 1.8l5.3.6v4.7zm55.6-34.7a20 20 0 0 0-12-4.7c-8.3 0-11.5 7.2-11.5 17.7 0 12.2 4.1 16.2 10.3 16.2 5.2 0 9.4-3.4 13.3-7.3V31.6Zm1.5 34.7-.7-5.8-.4-.1a21 21 0 0 1-15.5 6.9c-10 0-16.6-6.5-16.6-22.7 0-17.3 7.8-24.4 18.4-24.4 5.3 0 10 1.8 13.4 4.2V8.1q0-1.3-1.1-1.8L284 4.7l.8-4.7h13.4v59.2c0 1.4.1 1.6 1.4 1.8l4.5.6v4.7z" fill="#9d9d9c"/><path class="prefix__st1" d="M322.4 55.1c3 2.9 7.4 5.7 12 5.7 8.4 0 11.5-6.9 11.5-18 0-11.9-4.7-15.7-10.1-15.7-5.6 0-10.9 3.4-13.4 5.4zm-13 29.8v-4.8l3.6-.5c1.2-.2 1.5-.4 1.5-1.8V29.3q0-1.5-1.1-1.8l-5-1.7.8-4.7h11.6l.8 5.1.3.1c4.8-3.6 9.7-6.1 15.7-6.1 9.8 0 16.5 6.3 16.5 21.8 0 13.2-4.5 25.3-18.3 25.3-5 0-9.2-1.2-13.4-4.8v15.2c0 1.4.1 1.7 1.4 1.8l8.3.7v4.7zm76.8-38.8-9.9.9c-7.6.7-9.7 2.9-9.7 7.5q0 6.9 6.1 6.7c5.2 0 10.7-4.2 13.4-6.8zm1.5 20.2-.8-5.7-.3-.1a23 23 0 0 1-15.9 6.8c-11 0-12.4-7.6-12.4-12 0-8.8 5.4-12.9 16-13.8l11.9-1v-4.7c0-6.4-1.2-9.6-8.9-9.6-5.4 0-9.2.2-9.3 6.8l-7.6-.8c0-10.8 10-12 17-12 12.5 0 16.7 3.5 16.7 15.6v23.3c0 1.4.1 1.6 1.4 1.8l4.5.6v4.7zM405 84.9v-4.8l6.3-.8c1.1-.1 1.4-.6 1.9-1.8l5.1-11.7-15.8-37.4c-.4-1.1-.8-1.2-1.8-1.5l-3.6-.9 1-4.8h18.2V26l-5.8.7 11.7 29.5 12.2-29.5-6-.7 1-4.8h17.4V26l-3 .4q-1.6.1-2.2 1.5l-21.3 51.4-1.5 3.4a4 4 0 0 1-3.5 2.2zM60.5 63.1l-2.1 2.7a40 40 0 0 1-14.6 9.7q-3.9 1.4-6.9 1.5h-.7q-1.5 0-2.1-.4l-.2-.1-.2-.2v-.1l.1-.5q.3-.7.9-1.4l.4-.5 4.7-1.4q2.3.5 4.5.3a14 14 0 0 0 9.7-5.4q1.2-1.6 2-3.5 4-3.2 6.8-6.5l.9-1.2q-1 3.6-3.2 7m-10.3 4.5 1.7-1q-1.2 1.5-2.8 2.6a13 13 0 0 1-4.4 1.9l-2 .3q3.8-1.7 7.5-3.8m18.3-25.1q0-4.4-2.1-8.3a24 24 0 0 0-5.2-6.5q-.8-4-4-7.5a25 25 0 0 0-6.4-4.8 34 34 0 0 0-12.1-3.8q-2.5-.2-4.4.1a14 14 0 0 0-3.6 1.3l-.2.1q-2.3-.3-4.4-.1h-.4c-1.4.1-4.3.5-4.1 1.9 0 0 0 .8 1.8 1.4l2.5-1.5-.6-.1 2.2-.2h.5l-.5.3-.8.5-3.6 2.2-2.9 1.7-5.8 3-5.3 2.4-.2.1-1.4.6h-.1q-.8.3-1.4 1.1l-.1.4v.4l.1.2.3.3.3.2h.1l1.1.1h1.8l2-.1a141 141 0 0 1 17.6.7l4.2.6 2.1-2a90 90 0 0 0-17.7-1.8h-1.1l-4.6.1 4.1-2a84 84 0 0 0 10.3-6.4l.3-.2 6.8 1.3 5.1 1.2c-.7-1.7-2.8-2.7-4-3.2l-5.6-1 1.5-.9q2.5.3 4.4 1 1.5.6 2.5 1.3l.4.3q1.9 1.6 1.9 3.6.1 1.7-.8 3.5-.5 1-1.3 2.1 0 .5-3 3.2a41 41 0 0 1-9.9 6.7l-3.4 1.6q-2.5 1.2-7.7 2.9-2.7.8-5.2 1.3-2 .5-4.5.6 2.7-1.2 5.9-1.6 6.2-1.5 9.6-3.2l-6.4.3q-5.3.5-9.1 1.8c-1.5.5-3.5 1.3-4 2.6A3 3 0 0 0 .2 44q.6 1.1 2.5 1.4 1.4.2 3.6-.1 4-.4 8.9-2 4.3-1.4 8-3.1a57 57 0 0 1 16.1 3q4 1.5 6.9 3.4l1.8-1.4-.2-.1q-3.7-2.4-8.2-4.1a57 57 0 0 0-12.5-2.8 44 44 0 0 0 10.8-8q5 1.3 8.9 2.9 4.6 2 8.1 4.5l.2.1 1.2-2.1a46 46 0 0 0-16.2-7.3l-.4-.1a13 13 0 0 0 2.6-6v-1.7q4.4 1.4 8.3 3.2a33 33 0 0 1 6.7 4l.1.1a11 11 0 0 0-2.2-4.4l-3.9-2a67 67 0 0 0-9.9-3.5h-.1a8 8 0 0 0-3.4-3.1 16 16 0 0 0-4.2-1.4l2-.2h.2l2.5.2a29 29 0 0 1 11.4 3.9q3.5 2 5.7 4.5l1.4 1.8.2.4.1.1q1.2 1.8 1.5 4.7.2 3.1-.8 5.6c0 .1-.8 2.3-2.2 4.3a32 32 0 0 1-5.6 6.2q-.8 1-4.1 3.2-3 2.1-6.3 3.9-2.5 1.4-5.7 2.8l-3.7 1.4a66 66 0 0 1-16.8 3.7h-3.4c-1.6-.1-3.3-.3-4.3-1.2l-.2-.2v-.2q.4-.9 1.2-1.4 1-.7 2.5-1.3 3.4-1.3 7.9-1.8 4.3-.3 8.4.3l4.2 1 2.7-1q-2.6-1-5.6-1.8a37 37 0 0 0-17.4.7c-2.1.7-4.4 1.6-5.8 3.4q-1 1.2-.7 2.7c.2 1.2 1.2 2 1.7 2.3q2.1 1.2 4 1.3 1.8.3 3.9.3h.7a54 54 0 0 0 19.3-4.2l2.8-1.1q2.3 1.5 3.3 3.3t1 3.5-.9 3.2l-.5.8 2.1-.8.3-.6a8 8 0 0 0-1.5-8.3q-.8-1-1.9-1.9a71 71 0 0 0 12.5-7.5q3 2.9 4.2 6.3.6 1.8.6 3.7l2-1.8a13 13 0 0 0-1.8-5.2q-1.2-2.2-3.4-4.3 4-3.4 6.5-7.2l.3-.4q3 3 4.5 6.4v.1l.5 1.3q1-2.5 1.1-3.9-1.2-2.4-3.1-4.4l-1.7-1.7q1.7-3.5 2-6.6l1.4 1.8q2.3 3.5 2.7 7l.1 2.6-.3 2.4-.2.7q-.4 1.7-1.5 4l-.2.4-.2.4a29 29 0 0 1-5.4 7l-1 .9-3.1 2.6a47 47 0 0 1-13.1 7.3q-3.4 1.4-5.9 2a58 58 0 0 1-8.7 1.7q-3.8.3-6.5-.1a10 10 0 0 1-2.9-.9l-.5-.4-.1-.2v-.2c.4-1 1.7-1.5 3-1.9a14 14 0 0 1 4.3-.6h.2q2.2 0 4.6.6t4.3 1.3l.2.1 2.2-.6-.4-.1-1.8-.7q-2.5-1-4.5-1.5a22 22 0 0 0-10-.2 9 9 0 0 0-3.8 1.9q-.9 1-.9 2.2a3 3 0 0 0 1.1 2.2c1.8 1.6 4.7 2 7 2.1q4.3.3 9.4-.7l1.3-.3q-.5.7-.7 1.6-.1 1.5 1.4 2.3 1.3.8 3.7.8h.9q3.7-.1 8-1.8a37 37 0 0 0 14.5-9.8q3-3.3 4.5-7.1 1.6-3.8 1.5-8l-.1-1.2q2.6-4.4 2.5-8.8" fill="#e30613"/></g></svg>