<?xml version="1.0" encoding="UTF-8" standalone="no"?><!-- Generator: Gravit.io -->
<svg xmlns="http://www.w3.org/2000/svg" xmlns:xlink="http://www.w3.org/1999/xlink"
    style="isolation:isolate" viewBox="0 0 1600 400" width="1600pt" height="400pt">
    <defs>
        <clipPath id="_clipPath_ji7zFEcGfgJt5moO2j68c0lU2Lx9X5eP">
            <rect width="1600" height="400" />
        </clipPath>
    </defs>
    <g clip-path="url(#_clipPath_ji7zFEcGfgJt5moO2j68c0lU2Lx9X5eP)">
        <radialGradient id="_rgradient_0" fx="50%" fy="50%" cx="50%" cy="50%" r="50%">
            <stop offset="0%" style="stop-color:#CAF3FF" />
            <stop offset="100%" style="stop-color:#8CC5D7" />
        </radialGradient>
        <rect width="1600" height="400" style="fill:url(#_rgradient_0);" />
        <path
            d=" M 0 399.94 L 0 343.676 Q 83 302.134 221 258.219 C 379 215.641 579.99 203.501 861.148 202.634 Q 1142.305 201.767 1600 293.03 L 1600 399.94 L 470 399.94 L 0 399.94 Z "
            fill="rgb(64,183,151)" />
        <g>
            <path
                d=" M 647.061 282.603 C 702.403 252.453 759.305 233.547 803.406 227.754 C 811.324 226.714 824.234 225.752 832.219 225.608 Q 909.982 224.202 913.324 238.435 C 916.667 252.667 872.12 287.003 838.191 321 C 799.189 360.08 757.603 391.651 745 400 L 436 400 L 647.061 282.603 Z "
                fill="rgb(252,215,185)" />
            <g>
                <g>
                    <path
                        d=" M 844.408 233.324 L 844.408 97.653 L 839.584 97.653 L 839.584 115.094 L 839.584 119.727 L 839.584 119.727 L 839.584 151.415 L 839.584 215.497 L 839.584 233.045 C 841.384 233.146 842.996 233.217 844.408 233.324 Z "
                        fill="rgb(70,136,167)" />
                    <path
                        d=" M 846.95 232.364 L 846.95 97.653 L 844.408 97.653 L 844.408 232.15 C 845.346 232.219 846.193 232.291 846.95 232.364 Z "
                        fill="rgb(59,106,133)" />
                    <path
                        d=" M 852.311 234.726 L 857.136 235.008 L 857.136 97.653 L 852.311 97.653 L 852.311 115.736 L 852.311 120.362 L 852.311 120.364 L 852.311 152.126 L 852.311 206.364 L 852.311 208.925 L 852.311 215.957 L 852.311 232.475 L 852.311 234.726 Z "
                        fill="rgb(70,136,167)" />
                    <path
                        d=" M 857.136 233.324 L 859.677 233.485 L 859.677 97.653 L 857.997 97.653 L 857.997 97.653 L 857.136 97.653 L 857.136 233.324 Z "
                        fill="rgb(59,106,133)" />
                    <path
                        d=" M 865.038 235.866 L 869.862 236.15 L 869.862 97.653 L 865.038 97.653 L 865.038 116.646 L 865.038 121.31 L 865.038 153.48 L 865.038 206.464 L 865.038 210.531 L 865.038 217.708 L 865.038 233.823 L 865.038 235.866 Z "
                        fill="rgb(70,136,167)" />
                    <path
                        d=" M 869.862 234.726 L 872.404 235.008 L 872.404 97.653 L 869.862 97.653 L 869.862 234.726 Z "
                        fill="rgb(59,106,133)" />
                    <path
                        d=" M 857.997 97.653 L 859.382 97.653 L 863.803 97.653 L 867.781 97.653 L 869.877 97.653 L 871.821 97.653 C 873.082 97.653 874.105 96.4 874.105 94.855 L 874.105 94.799 C 874.105 93.28 873.118 92.044 871.887 92.002 C 871.865 92.001 871.843 92 871.821 92 L 857.997 92 C 859.259 92 860.282 93.253 860.282 94.799 L 860.282 94.855 C 860.282 96.4 859.259 97.653 857.997 97.653 L 857.997 97.653 Z "
                        fill="rgb(134,117,109)" />
                    <path
                        d=" M 840.985 97.653 L 843.252 97.653 L 849.891 97.653 L 853.389 97.653 L 860.767 97.653 L 867.406 97.653 L 868.591 97.653 C 870.697 97.653 872.404 96.4 872.404 94.855 L 872.404 94.799 C 872.404 93.253 870.697 92 868.591 92 L 840.985 92 C 838.879 92 837.171 93.253 837.171 94.799 L 837.171 94.855 C 837.171 96.4 838.879 97.653 840.985 97.653 Z "
                        fill="rgb(228,190,165)" />
                </g>
            </g>
            <linearGradient id="_lgradient_0" x1="0" y1="0.5" x2="1" y2="0.5">
                <stop offset="1.6666666666666667%" stop-opacity="0"
                    style="stop-color:rgb(241,108,60)" />
                <stop offset="97.08333333333333%" stop-opacity="1" style="stop-color:rgb(158,67,53)" />
            </linearGradient>
            <path
                d=" M 555 302 C 612.397 289.349 692.996 307.063 692.996 307.063 C 693.785 304.269 694.601 301.13 694.819 300.059 Q 694.819 300.059 704 273 Q 720.667 226.667 760 189 Q 778.755 172.579 794.487 161.7"
                fill="none" stroke-width="12"
                stroke="url(#_lgradient_0)" stroke-linejoin="miter" stroke-linecap="square"
                stroke-miterlimit="3" />
            <g>
                <g>
                    <g>
                        <path
                            d=" M 827.74 268.315 L 813.351 132.451 C 811.748 117.319 797.659 106.713 782.674 109.36 L 782.125 109.457 C 767.549 112.031 757.98 126.138 760.979 140.633 L 786.979 266.298 L 827.74 268.315 Z "
                            fill="rgb(68,165,197)" />
                        <path
                            d=" M 808.365 137.654 C 806.762 122.523 792.673 111.917 777.688 114.564 L 777.14 114.66 C 772.703 115.444 768.734 117.3 765.438 119.906 C 769.292 114.589 775.129 110.692 782.125 109.457 L 782.674 109.36 C 797.659 106.713 811.748 117.319 813.351 132.451 L 827.74 268.315 L 822.175 268.04 L 808.365 137.654 Z "
                            fill="rgb(70,136,167)" />
                        <path
                            d=" M 827.74 268.315 L 830.838 288.96 L 760.428 288.96 C 760.428 288.96 762.801 267.015 786.979 266.298 C 794.437 254.631 797.84 252.854 803.76 255.37 C 809.679 257.885 814.414 260.597 817.669 267.676 C 826.103 267.676 827.74 268.315 827.74 268.315 Z "
                            fill="rgb(254,254,254)" />
                        <path
                            d=" M 830.838 288.96 C 830.838 288.96 833.503 291.476 830.838 293.252 C 760.698 293.252 760.698 293.252 760.698 293.252 C 760.698 293.252 757.199 290.736 760.428 288.96 C 811.454 288.96 830.838 288.96 830.838 288.96 Z "
                            fill="rgb(52,79,96)" />
                        <path
                            d=" M 789.702 275.495 C 787.247 268.273 779.883 267.36 779.531 267.321 C 781.753 266.75 784.218 266.379 786.979 266.297 C 787.077 266.144 787.167 266.012 787.264 265.862 C 787.942 266.101 788.524 266.362 788.933 266.649 C 791.133 268.192 793.845 272.684 794.085 274.606 C 794.323 276.53 791.329 279.49 789.702 275.495 Z "
                            fill="rgb(61,100,122)" />
                        <path
                            d=" M 800.791 266.981 C 802.612 268.984 804.371 272.142 804.562 273.674 C 804.801 275.598 801.807 278.558 800.18 274.563 C 798.066 268.348 792.321 266.809 790.53 266.474 L 800.791 266.981 Z "
                            fill="rgb(61,100,122)" />
                    </g>
                    <g>
                        <path
                            d=" M 822.143 267.749 L 811.507 167.323 C 811.507 167.323 811.507 167.323 811.507 167.323 C 811.76 169.709 812.034 172.295 812.33 175.099 C 809.833 176.281 807.345 177.287 804.892 178.139 L 814.904 263.055 C 815.918 264.359 816.841 265.876 817.669 267.676 C 819.446 267.676 820.921 267.704 822.143 267.749 Z  M 786.979 266.297 L 786.979 266.297 L 767.699 173.111 L 767.699 173.111 L 770.162 185.016 L 779.509 230.191 L 780.364 234.323 L 782.813 246.162 L 784.466 254.148 L 786.979 266.298 M 813.444 261.382 L 803.679 178.551 C 801.275 179.341 798.91 179.988 796.608 180.512 C 800.326 190.446 803.228 201.586 804.576 213.833 C 807.035 236.195 809.673 250.678 811.963 260.016 C 812.473 260.441 812.967 260.894 813.444 261.382 Z  M 767.564 172.463 L 767.564 172.463 L 765.573 162.833 L 765.573 162.833 L 767.564 172.463 Z  M 811.44 166.693 L 810.356 156.449 L 810.356 156.449 C 810.663 159.351 811.021 162.741 811.44 166.693 L 811.44 166.693 Z  M 765.438 162.186 L 765.438 162.186 L 763.924 154.862 L 763.924 154.862 L 765.438 162.186 Z  M 810.289 155.82 L 809.427 147.676 C 809.426 147.676 809.427 147.676 809.426 147.676 C 809.651 149.801 809.934 152.473 810.289 155.82 L 810.289 155.82 Z  M 763.789 154.216 L 763.789 154.216 L 760.979 140.633 L 761.703 144.133 L 761.704 144.139 L 763.789 154.216 Z  M 779.116 147.415 C 779.923 147.318 780.728 147.21 781.527 147.093 L 776.524 114.777 C 773.63 115.358 770.945 116.398 768.523 117.805 L 772.109 138.176 C 774.327 140.878 776.698 143.961 779.116 147.415 Z  M 809.359 147.043 L 808.634 140.197 C 808.698 140.798 808.893 142.646 809.359 147.043 L 809.359 147.043 Z  M 782.767 146.903 C 785.436 146.478 788.036 145.958 790.501 145.394 L 786.358 114.672 L 786.999 114.587 C 785.465 114.304 783.891 114.158 782.294 114.158 C 780.776 114.158 779.238 114.29 777.688 114.564 L 777.14 114.66 C 777.14 114.66 777.14 114.66 777.139 114.66 L 777.758 114.565 L 782.767 146.903 Z  M 791.726 145.107 C 794.564 144.431 797.193 143.707 799.489 143.021 L 796.653 118.966 L 797.285 118.891 C 794.408 116.882 791.13 115.442 787.628 114.71 L 791.726 145.107 Z  M 800.707 142.652 C 805.531 141.168 808.609 139.955 808.609 139.955 L 808.365 137.654 C 807.56 130.052 803.602 123.593 797.964 119.382 L 800.707 142.652 Z  M 760.979 140.633 C 760.976 140.616 760.972 140.599 760.968 140.582 C 760.972 140.599 760.976 140.617 760.979 140.633 Z  M 760.966 140.57 C 760.963 140.556 760.96 140.543 760.957 140.528 C 760.96 140.542 760.963 140.556 760.966 140.57 Z  M 760.955 140.518 C 760.006 135.826 760.379 131.181 761.804 126.954 C 763.858 128.925 766.924 132.044 770.497 136.246 L 767.375 118.513 C 766.707 118.949 766.061 119.415 765.438 119.906 L 765.438 119.906 L 765.438 119.906 C 765.995 119.138 766.593 118.399 767.231 117.693 L 767.23 117.685 C 762.342 123.089 759.748 130.463 760.583 138.126 C 760.67 138.922 760.794 139.718 760.955 140.518 Z  M 808.633 140.187 L 808.633 140.186 C 808.633 140.186 808.633 140.187 808.633 140.187 Z  M 808.632 140.172 L 808.63 140.165 C 808.632 140.168 808.632 140.17 808.632 140.172 Z  M 808.628 140.139 L 808.628 140.137 C 808.628 140.137 808.628 140.139 808.628 140.139 Z  M 808.625 140.111 L 808.624 140.108 C 808.625 140.11 808.625 140.111 808.625 140.111 Z  M 767.753 117.122 L 767.764 117.121 C 771.356 113.373 776.088 110.652 781.553 109.565 C 776.084 110.653 771.348 113.373 767.753 117.122 Z  M 781.555 109.563 C 781.566 109.561 781.579 109.558 781.59 109.556 C 781.578 109.558 781.567 109.561 781.555 109.563 Z  M 781.599 109.555 C 781.61 109.552 781.619 109.551 781.632 109.549 C 781.621 109.551 781.609 109.552 781.599 109.555 Z  M 781.64 109.546 C 781.651 109.545 781.661 109.543 781.67 109.54 C 781.661 109.543 781.65 109.545 781.64 109.546 Z  M 781.684 109.538 C 781.692 109.537 781.702 109.534 781.711 109.533 C 781.703 109.534 781.692 109.537 781.684 109.538 Z  M 781.725 109.531 C 781.734 109.528 781.743 109.527 781.753 109.525 C 781.743 109.527 781.734 109.528 781.725 109.531 Z  M 781.768 109.522 C 781.777 109.521 781.784 109.519 781.793 109.517 C 781.785 109.519 781.776 109.521 781.768 109.522 Z  M 781.811 109.514 C 781.818 109.512 781.826 109.511 781.834 109.51 C 781.826 109.511 781.818 109.512 781.811 109.514 Z  M 781.854 109.506 C 781.86 109.505 781.869 109.503 781.875 109.502 C 781.868 109.503 781.86 109.504 781.854 109.506 Z  M 781.897 109.498 C 781.903 109.497 781.91 109.496 781.916 109.494 C 781.91 109.496 781.903 109.497 781.897 109.498 Z  M 781.941 109.489 C 781.946 109.488 781.952 109.488 781.957 109.487 C 781.952 109.487 781.946 109.488 781.941 109.489 Z  M 781.985 109.482 C 781.99 109.481 781.995 109.48 782 109.479 C 781.994 109.48 781.99 109.481 781.985 109.482 Z  M 782.027 109.474 C 782.032 109.472 782.037 109.472 782.042 109.471 C 782.037 109.472 782.032 109.472 782.027 109.474 Z  M 782.073 109.465 C 782.076 109.465 782.079 109.464 782.083 109.464 C 782.079 109.465 782.077 109.465 782.073 109.465 Z  M 782.125 109.457 L 782.125 109.457 L 782.674 109.36 C 784.113 109.106 785.546 108.974 786.959 108.956 C 785.545 108.974 784.115 109.106 782.674 109.36 L 782.125 109.457 L 782.125 109.457 Z "
                            fill-rule="evenodd" fill="rgb(68,165,197)" />
                        <path
                            d=" M 827.74 268.315 L 827.74 268.315 L 827.653 267.494 L 826.023 252.101 L 825.068 243.084 L 823.849 231.571 L 823.538 228.632 L 818.718 183.125 L 817.791 174.374 L 817.791 174.373 L 814.818 146.302 L 814.573 145.726 L 814.749 145.651 L 813.351 132.451 C 812.72 126.493 810.153 121.236 806.358 117.214 L 806.358 117.214 C 801.51 112.077 794.66 108.954 787.279 108.954 C 787.173 108.954 787.065 108.954 786.959 108.956 C 785.546 108.974 784.113 109.106 782.674 109.36 L 782.125 109.457 L 782.125 109.457 C 782.111 109.459 782.098 109.462 782.083 109.464 C 782.079 109.464 782.076 109.465 782.073 109.465 C 782.063 109.468 782.052 109.47 782.042 109.471 C 782.037 109.472 782.032 109.472 782.027 109.474 C 782.018 109.476 782.009 109.477 782 109.479 C 781.995 109.48 781.99 109.481 781.985 109.482 C 781.977 109.483 781.967 109.485 781.957 109.487 C 781.952 109.488 781.946 109.488 781.941 109.489 C 781.933 109.492 781.925 109.493 781.916 109.494 C 781.91 109.496 781.903 109.497 781.897 109.498 C 781.889 109.499 781.882 109.5 781.875 109.502 C 781.869 109.503 781.86 109.505 781.854 109.506 C 781.847 109.508 781.841 109.509 781.834 109.51 C 781.826 109.511 781.818 109.512 781.811 109.514 C 781.805 109.515 781.799 109.516 781.793 109.517 C 781.784 109.519 781.777 109.521 781.768 109.522 C 781.763 109.523 781.757 109.525 781.753 109.525 C 781.743 109.527 781.734 109.528 781.725 109.531 C 781.721 109.531 781.716 109.532 781.711 109.533 C 781.702 109.534 781.692 109.537 781.684 109.538 C 781.679 109.539 781.675 109.54 781.67 109.54 C 781.661 109.543 781.651 109.545 781.64 109.546 C 781.638 109.548 781.634 109.548 781.632 109.549 C 781.619 109.551 781.61 109.552 781.599 109.555 C 781.596 109.556 781.593 109.556 781.59 109.556 C 781.579 109.558 781.566 109.561 781.555 109.563 C 781.554 109.563 781.554 109.563 781.553 109.565 C 776.088 110.652 771.356 113.373 767.764 117.121 L 768.384 117.012 L 768.523 117.805 C 770.945 116.398 773.63 115.358 776.524 114.777 L 776.52 114.756 L 777.139 114.66 C 777.14 114.66 777.14 114.66 777.14 114.66 L 777.688 114.564 C 779.238 114.29 780.776 114.158 782.294 114.158 C 783.891 114.158 785.465 114.304 786.999 114.587 L 787.6 114.504 L 787.628 114.71 C 791.13 115.442 794.408 116.882 797.285 118.891 L 797.897 118.819 L 797.964 119.382 C 803.602 123.593 807.56 130.052 808.365 137.654 L 808.609 139.955 L 808.609 139.955 C 808.609 139.955 808.613 140.001 808.624 140.108 L 808.625 140.111 C 808.625 140.119 808.627 140.128 808.628 140.137 L 808.628 140.139 C 808.629 140.147 808.63 140.157 808.63 140.165 L 808.632 140.172 C 808.632 140.176 808.633 140.181 808.633 140.186 L 808.633 140.187 C 808.634 140.191 808.634 140.193 808.634 140.197 L 809.359 147.043 L 809.615 147.592 C 809.612 147.593 809.548 147.622 809.427 147.676 L 810.289 155.82 L 810.535 156.372 C 810.535 156.372 810.535 156.372 810.535 156.372 L 810.535 156.372 L 810.535 156.372 C 810.53 156.374 810.469 156.401 810.356 156.449 L 811.44 166.693 L 811.684 167.248 C 811.681 167.249 811.621 167.274 811.507 167.323 L 822.143 267.749 C 826.721 267.917 827.74 268.315 827.74 268.315 L 827.74 268.315 Z  M 765.438 119.906 C 766.061 119.415 766.707 118.949 767.375 118.513 L 767.231 117.693 C 766.593 118.399 765.995 119.138 765.438 119.906 Z "
                            fill-rule="evenodd" fill="rgb(61,100,122)" />
                        <path
                            d=" M 767.23 117.685 C 767.401 117.495 767.576 117.307 767.753 117.122 L 767.149 117.228 L 767.23 117.685 Z "
                            fill="rgb(48,70,82)" />
                        <path
                            d=" M 772.109 138.176 L 768.523 117.805 C 768.134 118.031 767.751 118.268 767.375 118.513 L 770.497 136.246 C 771.023 136.865 771.562 137.51 772.109 138.176 Z  M 767.231 117.693 C 767.406 117.499 767.584 117.309 767.764 117.121 L 767.753 117.122 C 767.576 117.307 767.401 117.495 767.23 117.685 L 767.231 117.693 Z "
                            fill-rule="evenodd" fill="rgb(68,135,162)" />
                        <path
                            d=" M 767.375 118.513 C 767.751 118.268 768.134 118.031 768.523 117.805 L 768.384 117.012 L 767.764 117.121 C 767.584 117.309 767.406 117.499 767.231 117.693 L 767.375 118.513 Z "
                            fill="rgb(66,118,144)" />
                        <path
                            d=" M 781.527 147.093 C 781.941 147.032 782.357 146.968 782.767 146.903 L 777.758 114.565 L 777.139 114.66 C 776.933 114.697 776.728 114.735 776.524 114.777 L 781.527 147.093 Z "
                            fill="rgb(68,135,162)" />
                        <path
                            d=" M 776.524 114.777 C 776.728 114.735 776.933 114.697 777.139 114.66 L 776.52 114.756 L 776.524 114.777 Z "
                            fill="rgb(66,118,144)" />
                        <path
                            d=" M 790.501 145.394 C 790.913 145.3 791.322 145.204 791.726 145.107 L 787.628 114.71 C 787.42 114.666 787.209 114.625 786.999 114.587 L 786.358 114.672 L 790.501 145.394 Z "
                            fill="rgb(68,135,162)" />
                        <path
                            d=" M 787.628 114.71 L 787.6 114.504 L 786.999 114.587 C 787.209 114.625 787.42 114.666 787.628 114.71 Z "
                            fill="rgb(66,118,144)" />
                        <path
                            d=" M 814.904 263.055 L 804.892 178.139 C 804.487 178.281 804.082 178.418 803.679 178.551 L 813.444 261.382 C 813.95 261.898 814.437 262.454 814.904 263.055 Z  M 799.489 143.021 C 799.907 142.897 800.313 142.773 800.707 142.652 L 797.964 119.382 C 797.74 119.215 797.514 119.052 797.285 118.891 L 796.653 118.966 L 799.489 143.021 Z "
                            fill-rule="evenodd" fill="rgb(68,135,162)" />
                        <path
                            d=" M 797.964 119.382 L 797.897 118.819 L 797.285 118.891 C 797.514 119.052 797.74 119.215 797.964 119.382 Z "
                            fill="rgb(66,118,144)" />
                        <path
                            d=" M 760.428 288.96 L 830.838 288.96 L 827.74 268.315 L 827.74 268.315 L 827.74 268.315 C 827.74 268.315 826.721 267.917 822.143 267.749 C 820.921 267.704 819.446 267.676 817.669 267.676 C 816.841 265.876 815.918 264.359 814.904 263.055 C 814.437 262.454 813.95 261.898 813.444 261.382 C 812.967 260.894 812.473 260.441 811.963 260.016 C 812.714 263.079 813.427 265.586 814.085 267.64 L 788.471 266.371 C 788.642 266.462 788.798 266.554 788.933 266.649 C 791.133 268.192 793.845 272.684 794.085 274.606 C 794.237 275.833 793.076 277.478 791.794 277.478 C 791.063 277.478 790.293 276.944 789.702 275.495 C 787.247 268.273 779.883 267.36 779.531 267.321 C 781.61 266.786 783.9 266.428 786.449 266.316 C 781.885 266.514 778.11 267.476 774.994 268.902 C 761.951 274.871 760.428 288.96 760.428 288.96 Z  M 790.53 266.474 L 800.791 266.981 C 802.612 268.984 804.371 272.142 804.562 273.674 C 804.715 274.9 803.554 276.546 802.272 276.546 C 801.54 276.546 800.769 276.012 800.18 274.563 C 798.066 268.348 792.321 266.809 790.53 266.474 Z "
                            fill-rule="evenodd" fill="rgb(254,254,254)" />
                        <path
                            d=" M 760.698 293.252 C 760.698 293.252 760.698 293.252 830.838 293.252 C 832.004 292.475 832.15 291.557 831.945 290.769 C 831.682 289.757 830.838 288.96 830.838 288.96 C 830.838 288.96 811.454 288.96 760.428 288.96 C 758.405 290.073 759.024 291.476 759.767 292.37 C 760.21 292.901 760.698 293.252 760.698 293.252 Z "
                            fill="rgb(52,79,96)" />
                        <path
                            d=" M 791.794 277.478 C 793.076 277.478 794.237 275.833 794.085 274.606 C 793.845 272.684 791.133 268.192 788.933 266.649 C 788.798 266.554 788.642 266.462 788.471 266.371 L 786.979 266.297 L 786.979 266.297 C 786.801 266.303 786.624 266.309 786.449 266.316 C 783.9 266.428 781.61 266.786 779.531 267.321 C 779.883 267.36 787.247 268.273 789.702 275.495 C 790.293 276.944 791.063 277.478 791.794 277.478 Z "
                            fill="rgb(61,100,122)" />
                        <path
                            d=" M 802.272 276.546 C 803.554 276.546 804.715 274.9 804.562 273.674 C 804.371 272.142 802.612 268.984 800.791 266.981 L 790.53 266.474 C 792.321 266.809 798.066 268.348 800.18 274.563 C 800.769 276.012 801.54 276.546 802.272 276.546 Z "
                            fill="rgb(61,100,122)" />
                    </g>
                    <g>
                        <path
                            d=" M 796.608 180.512 C 798.91 179.988 801.275 179.341 803.679 178.551 C 804.082 178.418 804.487 178.281 804.892 178.139 C 807.345 177.287 809.833 176.281 812.33 175.099 C 812.034 172.295 811.76 169.709 811.507 167.323 C 810.3 167.832 803.024 170.822 793.409 172.682 C 794.526 175.203 795.597 177.812 796.608 180.512 Z  M 792.901 171.547 C 795.97 170.962 798.809 170.259 801.289 169.553 C 804.3 168.698 806.782 167.842 808.508 167.202 C 809.371 166.881 810.046 166.614 810.503 166.428 C 810.962 166.243 811.197 166.139 811.197 166.139 L 811.44 166.693 C 811.021 162.741 810.663 159.351 810.356 156.449 C 808.985 157.039 799.919 160.834 788.554 162.752 C 790.05 165.542 791.508 168.478 792.901 171.547 Z  M 787.944 161.627 C 792.237 160.923 796.219 159.94 799.586 158.954 C 802.748 158.03 805.365 157.107 807.192 156.414 C 808.105 156.069 808.82 155.78 809.306 155.579 C 809.791 155.378 810.042 155.266 810.042 155.266 L 810.289 155.82 C 809.934 152.473 809.651 149.801 809.426 147.676 C 807.882 148.369 797.031 153.121 784.117 155.034 C 785.407 157.131 786.686 159.328 787.944 161.627 Z  M 783.421 153.912 C 788.849 153.143 793.946 151.85 798.146 150.554 C 801.444 149.537 804.187 148.52 806.105 147.759 C 807.064 147.377 807.816 147.06 808.326 146.839 C 808.839 146.617 809.104 146.494 809.104 146.494 L 809.359 147.043 C 808.893 142.646 808.698 140.798 808.634 140.197 C 808.634 140.193 808.634 140.191 808.633 140.187 C 808.633 140.187 808.633 140.186 808.633 140.186 C 808.633 140.181 808.632 140.176 808.632 140.172 C 808.632 140.17 808.632 140.168 808.63 140.165 C 808.63 140.157 808.629 140.147 808.628 140.139 C 808.628 140.139 808.628 140.137 808.628 140.137 C 808.627 140.128 808.625 140.119 808.625 140.111 C 808.625 140.111 808.625 140.11 808.624 140.108 C 808.613 140.001 808.609 139.955 808.609 139.955 L 808.609 139.955 C 808.609 139.955 805.531 141.168 800.707 142.652 C 800.313 142.773 799.907 142.897 799.489 143.021 C 797.193 143.707 794.564 144.431 791.726 145.107 C 791.322 145.204 790.913 145.3 790.501 145.394 C 788.036 145.958 785.436 146.478 782.767 146.903 C 782.357 146.968 781.941 147.032 781.527 147.093 C 780.728 147.21 779.923 147.318 779.116 147.415 C 780.542 149.454 781.984 151.619 783.421 153.912 Z "
                            fill-rule="evenodd" fill="rgb(66,112,140)" />
                        <path
                            d=" M 784.117 155.034 C 797.031 153.121 807.882 148.369 809.426 147.676 C 809.427 147.676 809.426 147.676 809.427 147.676 C 809.548 147.622 809.612 147.593 809.615 147.592 L 809.359 147.043 L 809.359 147.043 L 809.104 146.494 C 809.104 146.494 808.839 146.617 808.326 146.839 C 807.816 147.06 807.064 147.377 806.105 147.759 C 804.187 148.52 801.444 149.537 798.146 150.554 C 793.946 151.85 788.849 153.143 783.421 153.912 C 783.652 154.281 783.886 154.657 784.117 155.034 Z  M 763.924 154.862 L 763.789 154.216 L 763.662 154.808 C 763.749 154.826 763.836 154.844 763.924 154.862 L 763.924 154.862 Z "
                            fill-rule="evenodd" fill="rgb(68,165,197)" />
                        <path
                            d=" M 765.573 162.833 L 765.438 162.186 L 765.311 162.778 C 765.398 162.797 765.485 162.815 765.573 162.833 L 765.573 162.833 Z  M 788.554 162.752 C 799.919 160.834 808.985 157.039 810.356 156.449 L 810.356 156.449 C 810.469 156.401 810.53 156.374 810.535 156.372 L 810.289 155.82 L 810.289 155.82 L 810.042 155.266 C 810.042 155.266 809.791 155.378 809.306 155.579 C 808.82 155.78 808.105 156.069 807.192 156.414 C 805.365 157.107 802.748 158.03 799.586 158.954 C 796.219 159.94 792.237 160.923 787.944 161.627 C 788.149 162 788.351 162.374 788.554 162.752 Z  M 810.535 156.372 L 810.535 156.372 C 810.535 156.372 810.535 156.372 810.535 156.372 L 810.535 156.372 Z "
                            fill-rule="evenodd" fill="rgb(68,165,197)" />
                        <path
                            d=" M 767.699 173.111 L 767.564 172.463 L 767.564 172.463 L 767.437 173.055 C 767.524 173.074 767.611 173.093 767.699 173.111 L 767.699 173.111 Z  M 793.409 172.682 C 803.024 170.822 810.3 167.832 811.507 167.323 C 811.507 167.323 811.507 167.323 811.507 167.323 C 811.621 167.274 811.681 167.249 811.684 167.248 L 811.44 166.693 L 811.44 166.693 L 811.197 166.139 C 811.197 166.139 810.962 166.243 810.503 166.428 C 810.046 166.614 809.371 166.881 808.508 167.202 C 806.782 167.842 804.3 168.698 801.289 169.553 C 798.809 170.259 795.97 170.962 792.901 171.547 C 793.072 171.925 793.24 172.301 793.409 172.682 Z "
                            fill-rule="evenodd" fill="rgb(68,165,197)" />
                    </g>
                    <g>
                        <path
                            d=" M 786.979 266.297 L 786.979 266.297 C 786.988 266.285 786.996 266.272 787.005 266.259 C 788.944 263.227 790.608 260.866 792.115 259.075 L 778.652 182.582 C 778.433 182.585 778.217 182.585 778.003 182.585 C 774.578 182.585 771.701 182.377 769.568 182.147 L 767.699 173.111 L 767.699 173.111 L 786.979 266.297 Z  M 811.963 260.016 C 809.673 250.678 807.035 236.195 804.576 213.833 C 803.228 201.586 800.326 190.446 796.608 180.512 C 796.572 180.521 796.539 180.528 796.504 180.536 L 806.778 256.741 C 808.655 257.669 810.387 258.705 811.963 260.016 Z  M 793.177 257.879 C 794.969 255.983 796.558 254.937 798.169 254.551 L 786.951 182.114 C 784.452 182.378 782.094 182.515 779.922 182.563 L 793.177 257.879 Z  M 805.427 256.102 L 795.275 180.805 C 792.829 181.318 790.459 181.699 788.197 181.972 L 799.411 254.38 C 799.494 254.376 799.578 254.375 799.663 254.375 C 800.939 254.375 802.269 254.737 803.76 255.37 C 804.326 255.611 804.882 255.853 805.427 256.102 Z "
                            fill-rule="evenodd" fill="rgb(107,194,215)" />
                        <path
                            d=" M 792.115 259.075 C 792.477 258.644 792.832 258.246 793.177 257.879 L 779.922 182.563 C 779.491 182.574 779.067 182.58 778.652 182.582 L 792.115 259.075 Z "
                            fill="rgb(78,177,193)" />
                        <path
                            d=" M 798.169 254.551 C 798.58 254.451 798.993 254.396 799.411 254.38 L 788.197 181.972 C 787.778 182.023 787.363 182.07 786.951 182.114 L 798.169 254.551 Z "
                            fill="rgb(78,177,193)" />
                        <path
                            d=" M 806.778 256.741 L 796.504 180.536 C 796.092 180.63 795.682 180.719 795.275 180.805 L 805.427 256.102 C 805.884 256.31 806.336 256.523 806.778 256.741 Z "
                            fill="rgb(78,177,193)" />
                        <path
                            d=" M 814.085 267.64 C 813.427 265.586 812.714 263.079 811.963 260.016 C 810.387 258.705 808.655 257.669 806.778 256.741 C 806.336 256.523 805.884 256.31 805.427 256.102 C 804.882 255.853 804.326 255.611 803.76 255.37 C 802.269 254.737 800.939 254.375 799.663 254.375 C 799.578 254.375 799.494 254.376 799.411 254.38 C 798.993 254.396 798.58 254.451 798.169 254.551 C 796.558 254.937 794.969 255.983 793.177 257.879 C 792.832 258.246 792.477 258.644 792.115 259.075 C 790.608 260.866 788.944 263.227 787.005 266.259 C 787.093 266.121 787.175 265.999 787.264 265.862 C 787.715 266.021 788.126 266.19 788.471 266.371 L 814.085 267.64 Z "
                            fill="rgb(254,254,254)" />
                        <path
                            d=" M 788.471 266.371 C 788.126 266.19 787.715 266.021 787.264 265.862 C 787.175 265.999 787.093 266.121 787.005 266.259 C 786.996 266.272 786.988 266.285 786.979 266.297 L 786.979 266.297 L 788.471 266.371 Z "
                            fill="rgb(70,129,158)" />
                        <path
                            d=" M 778.003 182.585 C 778.217 182.585 778.433 182.585 778.652 182.582 C 779.067 182.58 779.491 182.574 779.922 182.563 C 782.094 182.515 784.452 182.378 786.951 182.114 C 787.363 182.07 787.778 182.023 788.197 181.972 C 790.459 181.699 792.829 181.318 795.275 180.805 C 795.682 180.719 796.092 180.63 796.504 180.536 C 796.539 180.528 796.572 180.521 796.608 180.512 C 795.597 177.812 794.526 175.203 793.409 172.682 C 788.892 173.557 783.858 174.181 778.696 174.184 C 775.05 174.184 771.338 173.871 767.699 173.111 L 769.568 182.147 C 771.701 182.377 774.578 182.585 778.003 182.585 Z "
                            fill="rgb(75,146,179)" />
                        <path
                            d=" M 767.564 172.463 L 767.564 172.463 L 765.573 162.833 L 765.573 162.833 L 767.564 172.463 Z  M 765.438 162.186 L 765.438 162.186 L 763.924 154.862 L 763.924 154.862 L 765.438 162.186 Z "
                            fill-rule="evenodd" fill="rgb(107,194,215)" />
                        <path
                            d=" M 763.789 154.216 L 763.789 154.216 L 762.381 147.41 C 764.878 147.813 767.5 147.99 770.171 147.99 C 770.963 147.99 771.758 147.974 772.556 147.945 L 770.497 136.246 C 766.924 132.044 763.858 128.925 761.804 126.954 C 760.379 131.181 760.006 135.826 760.955 140.518 C 760.956 140.521 760.957 140.526 760.957 140.528 C 760.96 140.543 760.963 140.556 760.966 140.57 C 760.967 140.574 760.967 140.578 760.968 140.582 C 760.972 140.599 760.976 140.616 760.979 140.633 L 760.979 140.633 L 763.789 154.216 Z  M 773.818 147.887 C 775.584 147.79 777.355 147.628 779.116 147.415 C 776.698 143.961 774.327 140.878 772.109 138.176 L 773.818 147.887 Z "
                            fill-rule="evenodd" fill="rgb(107,194,215)" />
                        <path
                            d=" M 772.556 147.945 C 772.975 147.929 773.397 147.91 773.818 147.887 L 772.109 138.176 C 771.562 137.51 771.023 136.865 770.497 136.246 L 772.556 147.945 Z "
                            fill="rgb(78,177,193)" />
                        <path
                            d=" M 778.696 172.973 C 783.656 172.973 788.514 172.382 792.901 171.547 C 791.508 168.478 790.05 165.542 788.554 162.752 C 784.616 163.417 780.4 163.856 776.134 163.858 C 772.608 163.858 769.045 163.557 765.573 162.833 L 767.564 172.463 L 767.693 171.871 C 771.316 172.651 775.033 172.973 778.696 172.973 Z  M 776.134 162.647 C 780.173 162.648 784.178 162.245 787.944 161.627 C 786.686 159.328 785.407 157.131 784.117 155.034 C 780.808 155.523 777.365 155.827 773.908 155.828 C 770.557 155.828 767.193 155.542 763.924 154.862 L 765.438 162.186 L 765.565 161.595 C 769.021 162.337 772.59 162.647 776.134 162.647 Z  M 773.906 154.617 C 773.906 154.617 773.907 154.617 773.908 154.617 C 777.116 154.619 780.322 154.35 783.421 153.912 C 781.984 151.619 780.542 149.454 779.116 147.415 C 777.355 147.628 775.584 147.79 773.818 147.887 C 773.397 147.91 772.975 147.929 772.556 147.945 C 771.758 147.974 770.963 147.99 770.171 147.99 C 767.5 147.99 764.878 147.813 762.381 147.41 L 763.789 154.216 L 763.916 153.623 C 767.166 154.322 770.537 154.617 773.906 154.617 Z "
                            fill-rule="evenodd" fill="rgb(75,146,179)" />
                        <path
                            d=" M 773.908 155.828 C 777.365 155.827 780.808 155.523 784.117 155.034 C 783.886 154.657 783.652 154.281 783.421 153.912 C 780.322 154.35 777.116 154.619 773.908 154.617 C 773.907 154.617 773.906 154.617 773.906 154.617 C 770.537 154.617 767.166 154.322 763.916 153.623 L 763.789 154.216 L 763.789 154.216 L 763.924 154.862 L 763.924 154.862 C 767.193 155.542 770.557 155.828 773.908 155.828 Z "
                            fill="rgb(107,194,215)" />
                        <path
                            d=" M 776.134 163.858 C 780.4 163.856 784.616 163.417 788.554 162.752 C 788.351 162.374 788.149 162 787.944 161.627 C 784.178 162.245 780.173 162.648 776.134 162.647 C 772.59 162.647 769.021 162.337 765.565 161.595 L 765.438 162.186 L 765.438 162.186 L 765.573 162.833 L 765.573 162.833 C 769.045 163.557 772.608 163.858 776.134 163.858 Z "
                            fill="rgb(107,194,215)" />
                        <path
                            d=" M 778.696 174.184 C 783.858 174.181 788.892 173.557 793.409 172.682 C 793.24 172.301 793.072 171.925 792.901 171.547 C 788.514 172.382 783.656 172.973 778.696 172.973 C 775.033 172.973 771.316 172.651 767.693 171.871 L 767.564 172.463 L 767.564 172.463 L 767.699 173.111 L 767.699 173.111 C 771.338 173.871 775.05 174.184 778.696 174.184 Z "
                            fill="rgb(107,194,215)" />
                    </g>
                </g>
                <g filter="url(#okJLPzKHjh2cB0wAl6zIy6a2VSxbJi7P)">
                    <path
                        d=" M 770.819 199.44 C 760.886 199.44 752.834 191.387 752.834 181.455 C 752.834 175.711 755.525 170.596 759.717 167.304 C 759.717 167.308 759.718 167.311 759.718 167.315 C 758.685 168.121 757.744 169.039 756.913 170.051 C 760.568 187.053 770.181 194.949 776.699 198.437 C 778.077 197.96 779.378 197.321 780.579 196.541 C 780.586 196.545 780.592 196.549 780.598 196.552 C 777.783 198.379 774.425 199.44 770.819 199.44 Z  M 781.103 196.212 L 781.123 196.175 C 782.152 195.454 783.101 194.627 783.956 193.711 C 768.857 184.949 765.426 170.821 764.653 164.576 C 763.083 165.15 761.614 165.932 760.282 166.891 L 760.26 166.892 C 763.22 164.743 766.86 163.473 770.796 163.468 C 769.814 163.471 768.857 163.571 767.919 163.724 C 768.351 170.733 771.377 182.601 786.818 182.601 C 787.442 182.601 788.085 182.582 788.749 182.542 C 788.771 182.181 788.805 181.822 788.805 181.455 C 788.805 187.564 785.759 192.963 781.103 196.212 Z "
                        fill-rule="evenodd" fill="rgb(252,215,185)" />
                    <path
                        d=" M 776.699 198.437 C 770.181 194.949 760.568 187.053 756.913 170.051 C 757.744 169.039 758.685 168.121 759.718 167.315 C 759.844 168.55 760.408 172.588 762.719 177.607 C 765.466 183.576 770.701 190.933 780.579 196.541 C 779.378 197.321 778.077 197.96 776.699 198.437 Z  M 781.123 196.175 L 781.428 195.631 C 771.627 190.137 766.509 182.935 763.818 177.101 C 762.476 174.184 761.742 171.612 761.346 169.773 C 761.149 168.854 761.035 168.118 760.971 167.616 C 760.939 167.364 760.919 167.172 760.908 167.044 C 760.896 166.915 760.893 166.858 760.893 166.857 L 760.282 166.891 C 761.614 165.932 763.083 165.15 764.653 164.576 C 765.426 170.821 768.857 184.949 783.956 193.711 C 783.101 194.627 782.152 195.454 781.123 196.175 Z "
                        fill-rule="evenodd" fill="rgb(162,54,54)" />
                    <path
                        d=" M 786.818 182.601 C 771.377 182.601 768.351 170.733 767.919 163.724 C 768.857 163.571 769.814 163.471 770.796 163.468 C 770.803 163.468 770.811 163.468 770.819 163.468 L 770.819 163.468 C 780.753 163.468 788.805 171.521 788.805 181.455 L 788.805 181.455 C 788.805 181.822 788.771 182.181 788.749 182.542 C 788.085 182.582 787.442 182.601 786.818 182.601 Z "
                        fill="rgb(253,235,221)" />
                    <path
                        d=" M 780.836 196.687 C 780.757 196.642 780.678 196.597 780.598 196.552 C 780.592 196.549 780.586 196.545 780.579 196.541 C 770.701 190.933 765.466 183.576 762.719 177.607 C 760.408 172.588 759.844 168.55 759.718 167.315 C 759.718 167.311 759.717 167.308 759.717 167.304 C 759.692 167.064 759.685 166.932 759.684 166.924 L 760.26 166.892 L 760.282 166.891 L 760.893 166.857 C 760.893 166.858 760.896 166.915 760.908 167.044 C 760.919 167.172 760.939 167.364 760.971 167.616 C 761.035 168.118 761.149 168.854 761.346 169.773 C 761.742 171.612 762.476 174.184 763.818 177.101 C 766.509 182.935 771.627 190.137 781.428 195.631 L 781.123 196.175 L 781.103 196.212 L 780.836 196.687 Z "
                        fill="rgb(217,182,160)" />
                </g>
                <defs>
                    <filter id="okJLPzKHjh2cB0wAl6zIy6a2VSxbJi7P" x="-200%" y="-200%" width="400%"
                        height="400%" filterUnits="objectBoundingBox"
                        color-interpolation-filters="sRGB">
                        <feGaussianBlur xmlns="http://www.w3.org/2000/svg" in="SourceGraphic"
                            stdDeviation="4.293609062839028" />
                        <feOffset xmlns="http://www.w3.org/2000/svg" dx="4" dy="-1"
                            result="pf_100_offsetBlur" />
                        <feFlood xmlns="http://www.w3.org/2000/svg" flood-color="#000000"
                            flood-opacity="0.65" />
                        <feComposite xmlns="http://www.w3.org/2000/svg" in2="pf_100_offsetBlur"
                            operator="in" result="pf_100_dropShadow" />
                        <feBlend xmlns="http://www.w3.org/2000/svg" in="SourceGraphic"
                            in2="pf_100_dropShadow" mode="normal" />
                    </filter>
                </defs>
            </g>
        </g>
        <g>
            <path
                d=" M 954.151 244.204 Q 1117.714 245.014 1247.254 258.79 Q 1376.793 272.566 1538 301.283 L 1538 191.485 Q 1319.358 166.162 1244.401 159.654 Q 1169.445 153.145 951.328 146.087 L 954.151 244.204 Z "
                fill="rgb(43,60,70)" />
            <path
                d=" M 882.561 168.233 Q 1060.31 171.659 1200.881 188.647 Q 1341.451 205.634 1519.458 226.934 L 882.561 168.233 Z "
                fill="none" />
            <path
                d=" M 1373.535 233.71 L 1373.535 233.71 Q 1373.171 236.876 1374.573 239.186 L 1374.573 239.186 L 1374.573 239.186 Q 1375.975 241.497 1378.761 241.818 L 1378.761 241.818 L 1378.761 241.818 Q 1381.674 242.153 1383.559 240.542 L 1383.559 240.542 L 1383.559 240.542 Q 1385.445 238.93 1385.854 235.384 L 1385.854 235.384 L 1394.592 236.391 L 1394.592 236.391 Q 1394.074 240.886 1391.793 243.703 L 1391.793 243.703 L 1391.793 243.703 Q 1389.512 246.52 1386.178 247.612 L 1386.178 247.612 L 1386.178 247.612 Q 1382.844 248.704 1379.045 248.267 L 1379.045 248.267 L 1378.032 248.15 L 1378.032 248.15 Q 1370.94 247.333 1367.246 242.641 L 1367.246 242.641 L 1367.246 242.641 Q 1363.551 237.949 1364.412 230.478 L 1364.412 230.478 L 1364.623 228.641 L 1364.623 228.641 Q 1365.192 223.702 1367.598 220.354 L 1367.598 220.354 L 1367.598 220.354 Q 1370.005 217.006 1373.706 215.508 L 1373.706 215.508 L 1373.706 215.508 Q 1377.408 214.009 1381.903 214.527 L 1381.903 214.527 L 1382.916 214.643 L 1382.916 214.643 Q 1386.652 215.074 1389.664 217.056 L 1389.664 217.056 L 1389.664 217.056 Q 1392.676 219.039 1394.253 222.333 L 1394.253 222.333 L 1394.253 222.333 Q 1395.831 225.626 1395.35 229.805 L 1395.35 229.805 L 1386.169 228.748 L 1386.169 228.748 Q 1386.548 225.455 1385.317 223.325 L 1385.317 223.325 L 1385.317 223.325 Q 1384.087 221.194 1381.237 220.866 L 1381.237 220.866 L 1381.237 220.866 Q 1378.388 220.538 1376.483 222.596 L 1376.483 222.596 L 1376.483 222.596 Q 1374.578 224.655 1374.184 228.074 L 1374.184 228.074 L 1373.535 233.71 Z  M 1443.119 239.54 L 1443.119 239.54 Q 1442.558 244.416 1440.084 247.788 L 1440.084 247.788 L 1440.084 247.788 Q 1437.611 251.16 1433.783 252.644 L 1433.783 252.644 L 1433.783 252.644 Q 1429.955 254.128 1425.459 253.611 L 1425.459 253.611 L 1424.446 253.494 L 1424.446 253.494 Q 1419.95 252.976 1416.56 250.661 L 1416.56 250.661 L 1416.56 250.661 Q 1413.169 248.346 1411.527 244.5 L 1411.527 244.5 L 1411.527 244.5 Q 1409.884 240.654 1410.446 235.778 L 1410.446 235.778 L 1410.657 233.942 L 1410.657 233.942 Q 1411.218 229.066 1413.692 225.694 L 1413.692 225.694 L 1413.692 225.694 Q 1416.166 222.321 1419.994 220.837 L 1419.994 220.837 L 1419.994 220.837 Q 1423.821 219.353 1428.317 219.871 L 1428.317 219.871 L 1429.33 219.987 L 1429.33 219.987 Q 1433.826 220.505 1437.217 222.82 L 1437.217 222.82 L 1437.217 222.82 Q 1440.607 225.135 1442.25 228.982 L 1442.25 228.982 L 1442.25 228.982 Q 1443.892 232.828 1443.331 237.704 L 1443.331 237.704 L 1443.119 239.54 Z  M 1434.149 234.978 L 1434.149 234.978 Q 1434.593 231.116 1432.895 228.867 L 1432.895 228.867 L 1432.895 228.867 Q 1431.197 226.618 1428.095 226.261 L 1428.095 226.261 L 1428.095 226.261 Q 1424.992 225.904 1422.827 227.708 L 1422.827 227.708 L 1422.827 227.708 Q 1420.663 229.512 1420.218 233.374 L 1420.218 233.374 L 1419.628 238.503 L 1419.628 238.503 Q 1419.183 242.366 1420.881 244.614 L 1420.881 244.614 L 1420.881 244.614 Q 1422.579 246.863 1425.682 247.22 L 1425.682 247.22 L 1425.682 247.22 Q 1428.784 247.578 1430.949 245.774 L 1430.949 245.774 L 1430.949 245.774 Q 1433.113 243.97 1433.558 240.107 L 1433.558 240.107 L 1434.149 234.978 Z  M 1479.661 225.768 L 1479.661 225.768 Q 1482.764 226.124 1485.081 227.738 L 1485.081 227.738 L 1485.081 227.738 Q 1487.398 229.351 1488.437 232.037 L 1488.437 232.037 L 1488.437 232.037 Q 1492.326 227.222 1498.468 227.927 L 1498.468 227.927 L 1498.468 227.927 Q 1503.027 228.451 1505.719 231.551 L 1505.719 231.551 L 1505.719 231.551 Q 1508.411 234.651 1507.851 239.526 L 1507.851 239.526 L 1505.255 262.133 L 1496.01 261.071 L 1498.395 240.301 L 1498.395 240.301 Q 1498.7 237.642 1497.724 236.086 L 1497.724 236.086 L 1497.724 236.086 Q 1496.748 234.531 1494.721 234.298 L 1494.721 234.298 L 1494.721 234.298 Q 1492.505 234.043 1490.782 235.642 L 1490.782 235.642 L 1490.782 235.642 Q 1489.058 237.241 1488.753 239.9 L 1488.753 239.9 L 1486.448 259.974 L 1477.203 258.912 L 1479.588 238.142 L 1479.588 238.142 Q 1479.886 235.546 1478.882 233.955 L 1478.882 233.955 L 1478.882 233.955 Q 1477.877 232.364 1475.851 232.131 L 1475.851 232.131 L 1475.851 232.131 Q 1473.635 231.877 1471.943 233.479 L 1471.943 233.479 L 1471.943 233.479 Q 1470.251 235.081 1469.946 237.741 L 1469.946 237.741 L 1467.642 257.814 L 1458.396 256.753 L 1462.111 224.395 L 1469.077 225.195 L 1469.077 225.195 Q 1469.275 226.821 1469.545 230.06 L 1469.545 230.06 L 1469.545 230.06 Q 1471.567 227.534 1474.158 226.484 L 1474.158 226.484 L 1474.158 226.484 Q 1476.748 225.434 1479.661 225.768 L 1479.661 225.768 Z  M 1180.972 189.067 L 1168.654 187.99 L 1165.535 223.675 L 1155.82 222.826 L 1158.939 187.141 L 1146.557 186.059 L 1147.245 178.185 L 1181.661 181.193 L 1180.972 189.067 Z  M 1223.886 229.479 L 1193.068 226.35 L 1197.484 182.849 L 1228.113 185.959 L 1226.243 193.649 L 1206.331 191.627 L 1205.365 201.139 L 1223.945 203.026 L 1223.153 210.826 L 1204.573 208.939 L 1203.498 219.529 L 1223.6 221.57 L 1223.886 229.479 Z  M 1267.613 203.776 L 1267.679 203.206 L 1267.679 203.206 Q 1267.958 200.8 1266.217 199.218 L 1266.217 199.218 L 1266.217 199.218 Q 1264.475 197.637 1261.12 197.248 L 1261.12 197.248 L 1261.12 197.248 Q 1257.637 196.844 1255.578 197.728 L 1255.578 197.728 L 1255.578 197.728 Q 1253.518 198.612 1253.305 200.449 L 1253.305 200.449 L 1253.305 200.449 Q 1253.122 202.031 1254.204 203.216 L 1254.204 203.216 L 1254.204 203.216 Q 1255.285 204.4 1257.08 205.249 L 1257.08 205.249 L 1257.08 205.249 Q 1258.874 206.099 1262.015 207.233 L 1262.015 207.233 L 1262.015 207.233 Q 1266.632 208.923 1269.563 210.483 L 1269.563 210.483 L 1269.563 210.483 Q 1272.494 212.042 1274.385 214.827 L 1274.385 214.827 L 1274.385 214.827 Q 1276.276 217.613 1275.784 221.855 L 1275.784 221.855 L 1275.784 221.855 Q 1274.925 229.263 1269.745 232.16 L 1269.745 232.16 L 1269.745 232.16 Q 1264.564 235.056 1256.207 234.087 L 1256.207 234.087 L 1256.207 234.087 Q 1248.609 233.206 1244.024 229.306 L 1244.024 229.306 L 1244.024 229.306 Q 1239.439 225.406 1240.225 218.631 L 1240.225 218.631 L 1240.45 217.245 L 1249.694 218.317 L 1249.513 219.323 L 1249.513 219.323 Q 1249.19 222.109 1251.092 223.965 L 1251.092 223.965 L 1251.092 223.965 Q 1252.994 225.822 1256.793 226.263 L 1256.793 226.263 L 1256.793 226.263 Q 1261.225 226.776 1263.318 225.607 L 1263.318 225.607 L 1263.318 225.607 Q 1265.41 224.438 1265.66 222.286 L 1265.66 222.286 L 1265.66 222.286 Q 1265.851 220.639 1264.801 219.459 L 1264.801 219.459 L 1264.801 219.459 Q 1263.75 218.279 1262.016 217.468 L 1262.016 217.468 L 1262.016 217.468 Q 1260.281 216.657 1257.14 215.523 L 1257.14 215.523 L 1257.14 215.523 Q 1252.467 213.762 1249.568 212.207 L 1249.568 212.207 L 1249.568 212.207 Q 1246.668 210.651 1244.76 207.735 L 1244.76 207.735 L 1244.76 207.735 Q 1242.853 204.819 1243.374 200.324 L 1243.374 200.324 L 1243.374 200.324 Q 1243.858 196.145 1246.475 193.497 L 1246.475 193.497 L 1246.475 193.497 Q 1249.092 190.849 1253.088 189.868 L 1253.088 189.868 L 1253.088 189.868 Q 1257.084 188.888 1261.832 189.438 L 1261.832 189.438 L 1261.832 189.438 Q 1269.114 190.282 1273.365 194.016 L 1273.365 194.016 L 1273.365 194.016 Q 1277.616 197.749 1276.882 204.08 L 1276.882 204.08 L 1276.794 204.84 L 1267.613 203.776 Z  M 1325.727 205.423 L 1313.443 204.006 L 1309.34 239.592 L 1299.652 238.474 L 1303.756 202.889 L 1291.408 201.465 L 1292.314 193.613 L 1326.633 197.571 L 1325.727 205.423 Z  M 1336.377 242.71 L 1337.45 233.402 L 1346.695 234.468 L 1345.622 243.776 L 1336.377 242.71 Z  M 1009.107 214.143 L 980.179 213.4 L 981.303 169.689 L 991.179 169.943 L 990.265 205.497 L 1008.234 205.959 L 1009.107 214.143 Z  M 1026.427 171.093 L 1048.073 172.133 L 1048.073 172.133 Q 1051.193 172.283 1053.735 173.841 L 1053.735 173.841 L 1053.735 173.841 Q 1056.276 175.398 1057.718 177.924 L 1057.718 177.924 L 1057.718 177.924 Q 1059.16 180.45 1059.02 183.379 L 1059.02 183.379 L 1059.02 183.379 Q 1058.806 187.836 1056.588 190.154 L 1056.588 190.154 L 1056.588 190.154 Q 1054.371 192.472 1051.082 193.208 L 1051.082 193.208 L 1051.066 193.526 L 1051.066 193.526 Q 1054.534 194.395 1056.895 197.061 L 1056.895 197.061 L 1056.895 197.061 Q 1059.256 199.726 1059.014 204.756 L 1059.014 204.756 L 1059.014 204.756 Q 1058.861 207.939 1057.109 210.535 L 1057.109 210.535 L 1057.109 210.535 Q 1055.357 213.131 1052.513 214.558 L 1052.513 214.558 L 1052.513 214.558 Q 1049.669 215.985 1046.358 215.826 L 1046.358 215.826 L 1024.33 214.768 L 1026.427 171.093 Z  M 1044.422 189.697 L 1044.422 189.697 Q 1046.332 189.789 1047.867 188.395 L 1047.867 188.395 L 1047.867 188.395 Q 1049.401 187.001 1049.508 184.773 L 1049.508 184.773 L 1049.508 184.773 Q 1049.637 182.099 1048.229 180.851 L 1048.229 180.851 L 1048.229 180.851 Q 1046.821 179.603 1044.911 179.511 L 1044.911 179.511 L 1035.362 179.052 L 1034.872 189.239 L 1044.422 189.697 Z  M 1044.254 207.812 L 1044.254 207.812 Q 1046.355 207.913 1047.89 206.519 L 1047.89 206.519 L 1047.89 206.519 Q 1049.424 205.125 1049.525 203.024 L 1049.525 203.024 L 1049.553 202.451 L 1049.553 202.451 Q 1049.654 200.35 1048.26 198.815 L 1048.26 198.815 L 1048.26 198.815 Q 1046.866 197.281 1044.765 197.18 L 1044.765 197.18 L 1034.515 196.688 L 1034.004 207.32 L 1044.254 207.812 Z  M 1103.411 192.565 L 1094.543 218.328 L 1083.664 217.658 L 1074.139 173.263 L 1084.382 173.894 L 1090.319 202.933 L 1090.637 202.953 L 1100.159 174.867 L 1110.02 175.474 L 1115.957 204.513 L 1116.275 204.533 L 1125.733 176.443 L 1135.022 177.015 L 1120.054 219.901 L 1109.302 219.238 L 1103.792 192.588 L 1103.411 192.565 Z "
                fill="rgb(255,255,255)" />
        </g>
    </g>
</svg>